<?xml version="1.0" encoding="UTF-8"?> <svg xmlns="http://www.w3.org/2000/svg" width="280" height="280" viewBox="0 0 280 280" fill="none"> <path d="M140 280C217.32 280 280 217.32 280 140C280 62.6801 217.32 0 140 0C62.6801 0 0 62.6801 0 140C0 217.32 62.6801 280 140 280Z" fill="white"></path> <path d="M225.857 74.2593H54.9499C52.3184 74.2593 50.1852 76.3836 50.1852 79.0041V188.877C50.1852 191.498 52.3184 193.622 54.9499 193.622H225.857C228.488 193.622 230.622 191.498 230.622 188.877V79.0041C230.622 76.3836 228.488 74.2593 225.857 74.2593Z" fill="#E8EAED" stroke="#202123" stroke-width="1.5" stroke-linecap="round" stroke-linejoin="round"></path> <path d="M225.185 188.148V79.8147L55.7407 79.8147V188.148H225.185Z" fill="white"></path> <path d="M147.868 194.047V217.338C147.864 218.597 147.359 219.804 146.464 220.693C145.568 221.583 144.355 222.082 143.09 222.082H137.703C136.44 222.079 135.23 221.578 134.337 220.689C133.444 219.8 132.941 218.595 132.938 217.338V194.047H147.868Z" fill="#E8EAED" stroke="#202123" stroke-width="1.5" stroke-linecap="round" stroke-linejoin="round"></path> <path d="M147.407 194.63V202.963H133.638L133.519 202.838V194.63H147.407Z" fill="#80858B"></path> <path d="M166.21 218.259H114.169C113.227 218.259 112.463 219.02 112.463 219.958V221.658C112.463 222.596 113.227 223.357 114.169 223.357H166.21C167.152 223.357 167.916 222.596 167.916 221.658V219.958C167.916 219.02 167.152 218.259 166.21 218.259Z" fill="#E8EAED" stroke="#202123" stroke-width="1.5" stroke-linecap="round" stroke-linejoin="round"></path> <path d="M214.604 106.755H129.761C128.335 106.755 127.18 107.905 127.18 109.325V179.796C127.18 181.215 128.335 182.366 129.761 182.366H214.604C216.029 182.366 217.185 181.215 217.185 179.796V109.325C217.185 107.905 216.029 106.755 214.604 106.755Z" stroke="#E8EAED" stroke-miterlimit="10"></path> <path d="M152.987 131.18H143.176V174.082H152.987V131.18Z" fill="#E8EAED"></path> <path d="M167.917 150.295H158.106V174.082H167.917V150.295Z" fill="#E8EAED"></path> <path d="M181.567 140.1H171.756V174.082H181.567V140.1Z" fill="#E8EAED"></path> <path d="M207.161 121.834H197.35V174.082H207.161V121.834Z" fill="#E8EAED"></path> <path d="M105.523 101.233H69.1751C67.9883 101.229 66.851 100.758 66.0118 99.9225C65.1725 99.0868 64.6996 97.9543 64.6962 96.7724C64.6996 95.5906 65.1725 94.458 66.0118 93.6223C66.851 92.7866 67.9883 92.3156 69.1751 92.3123H105.288L105.523 101.233Z" stroke="#E8EAED" stroke-miterlimit="10"></path> <path d="M113.141 101.233H212.531C213.706 101.218 214.828 100.741 215.651 99.905C216.475 99.0693 216.932 97.9431 216.924 96.7724V96.7724C216.932 95.6018 216.475 94.4755 215.651 93.6398C214.828 92.8041 213.706 92.3268 212.531 92.3123H113.103L113.141 101.233Z" stroke="#E8EAED" stroke-miterlimit="10"></path> <path d="M120.795 182.366H67.0223C66.3435 182.366 65.6925 182.097 65.2125 181.619C64.7325 181.141 64.4629 180.493 64.4629 179.817V109.291C64.4629 108.615 64.7325 107.967 65.2125 107.489C65.6925 107.011 66.3435 106.742 67.0223 106.742H99.5264C100.93 106.742 94.028 125.008 123.341 124.532V179.83C123.338 180.501 123.069 181.144 122.592 181.619C122.115 182.094 121.469 182.362 120.795 182.366V182.366Z" stroke="#E8EAED" stroke-miterlimit="10"></path> <path d="M117.347 134.365H70.4677C69.7492 134.365 69.1667 134.946 69.1667 135.661V136.893C69.1667 137.608 69.7492 138.188 70.4677 138.188H117.347C118.066 138.188 118.648 137.608 118.648 136.893V135.661C118.648 134.946 118.066 134.365 117.347 134.365Z" fill="#27B4B8"></path> <path d="M117.347 141.587H70.4677C69.7492 141.587 69.1667 142.167 69.1667 142.882V144.114C69.1667 144.83 69.7492 145.41 70.4677 145.41H117.347C118.066 145.41 118.648 144.83 118.648 144.114V142.882C118.648 142.167 118.066 141.587 117.347 141.587Z" fill="#27B4B8"></path> <path d="M117.347 149.233H70.4677C69.7492 149.233 69.1667 149.813 69.1667 150.528V151.76C69.1667 152.476 69.7492 153.056 70.4677 153.056H117.347C118.066 153.056 118.648 152.476 118.648 151.76V150.528C118.648 149.813 118.066 149.233 117.347 149.233Z" fill="#27B4B8"></path> <path d="M117.347 156.454H70.4677C69.7492 156.454 69.1667 157.034 69.1667 157.749V158.981C69.1667 159.697 69.7492 160.277 70.4677 160.277H117.347C118.066 160.277 118.648 159.697 118.648 158.981V157.749C118.648 157.034 118.066 156.454 117.347 156.454Z" fill="#27B4B8"></path> <path d="M93.4595 164.525H70.4677C69.7492 164.525 69.1667 165.105 69.1667 165.82V167.052C69.1667 167.768 69.7492 168.348 70.4677 168.348H93.4595C94.178 168.348 94.7605 167.768 94.7605 167.052V165.82C94.7605 165.105 94.178 164.525 93.4595 164.525Z" fill="#27B4B8"></path> <path d="M66.6085 89.5513C67.6686 89.5513 68.528 88.6955 68.528 87.6398C68.528 86.5841 67.6686 85.7283 66.6085 85.7283C65.5484 85.7283 64.6889 86.5841 64.6889 87.6398C64.6889 88.6955 65.5484 89.5513 66.6085 89.5513Z" fill="#E8EAED"></path> <path d="M73.4336 89.5513C74.4937 89.5513 75.3531 88.6955 75.3531 87.6398C75.3531 86.5841 74.4937 85.7283 73.4336 85.7283C72.3734 85.7283 71.514 86.5841 71.514 87.6398C71.514 88.6955 72.3734 89.5513 73.4336 89.5513Z" fill="#E8EAED"></path> <path d="M81.1104 89.5513C82.1706 89.5513 83.03 88.6955 83.03 87.6398C83.03 86.5841 82.1706 85.7283 81.1104 85.7283C80.0503 85.7283 79.1909 86.5841 79.1909 87.6398C79.1909 88.6955 80.0503 89.5513 81.1104 89.5513Z" fill="#E8EAED"></path> <path d="M107.959 140.011C104.673 140.111 101.4 139.565 98.3272 138.402C95.2545 137.239 92.4428 135.482 90.0538 133.234C87.6649 130.985 85.7456 128.289 84.4063 125.3C83.0671 122.31 82.3343 119.087 82.25 115.814C82.1657 112.542 82.7316 109.285 83.9151 106.232C85.0987 103.178 86.8766 100.387 89.1466 98.0193C91.4167 95.6518 94.1342 93.7544 97.143 92.4361C100.152 91.1177 103.392 90.4044 106.679 90.3372L107.315 115.174L132.256 114.541C132.425 121.127 129.961 127.51 125.404 132.287C120.848 137.063 114.572 139.842 107.959 140.011V140.011Z" fill="#E8EAED" stroke="#202123" stroke-width="1.5" stroke-linecap="round" stroke-linejoin="round"></path> <path d="M136.603 109.728L111.662 110.361L111.043 85.979V85.5245C117.655 85.3613 124.061 87.8191 128.854 92.3577C133.647 96.8963 136.434 103.144 136.603 109.728V109.728Z" fill="#27B4B8" stroke="#202123" stroke-width="1.5" stroke-linecap="round" stroke-linejoin="round"></path> <path d="M105.199 141.714C98.6056 141.849 92.2266 139.379 87.4568 134.843C82.687 130.308 79.9144 124.077 79.7453 117.511C79.5761 110.946 82.0242 104.581 86.5542 99.8082C91.0842 95.0352 97.3277 92.2425 103.92 92.0405L104.555 116.882L129.496 116.249C129.665 122.834 127.2 129.216 122.643 133.992C118.087 138.767 111.812 141.545 105.199 141.714V141.714Z" fill="white" stroke="#202123" stroke-width="1.5" stroke-linecap="round" stroke-linejoin="round"></path> <path d="M103.932 92.0405L106.688 90.3372L107.323 115.174L132.265 114.541L129.509 116.249L104.568 116.877L103.932 92.0405Z" fill="#E8EAED" stroke="#202123" stroke-width="1.5" stroke-linecap="round" stroke-linejoin="round"></path> <path d="M138.847 107.371L136.603 109.728C136.583 108.952 136.528 108.186 136.437 107.43C135.75 101.675 133.065 96.3394 128.845 92.3476C124.625 88.3558 119.137 85.9586 113.33 85.571C112.57 85.52 111.804 85.5044 111.03 85.5243L113.27 83.1667L116.887 83.3367C122.836 84.0489 128.328 86.8694 132.36 91.2824C136.392 95.6955 138.695 101.406 138.847 107.371V107.371Z" fill="#27B4B8" stroke="#202123" stroke-width="1.5" stroke-linecap="round" stroke-linejoin="round"></path> <path d="M180.591 133.482L177.891 137.339" stroke="white" stroke-miterlimit="10"></path> <path d="M211.212 98.4717C212.272 98.4717 213.132 97.6159 213.132 96.5602C213.132 95.5045 212.272 94.6487 211.212 94.6487C210.152 94.6487 209.293 95.5045 209.293 96.5602C209.293 97.6159 210.152 98.4717 211.212 98.4717Z" fill="#E8EAED"></path> <path d="M93.6954 111.427C94.7556 111.427 95.615 110.572 95.615 109.516C95.615 108.46 94.7556 107.604 93.6954 107.604C92.6353 107.604 91.7759 108.46 91.7759 109.516C91.7759 110.572 92.6353 111.427 93.6954 111.427Z" fill="white" stroke="#202123" stroke-width="0.84" stroke-linecap="round" stroke-linejoin="round"></path> <path d="M104.568 116.882L82.6 128.657C80.5799 124.918 79.5549 120.727 79.6227 116.482C79.6904 112.237 80.8488 108.081 82.9872 104.408C85.1257 100.736 88.173 97.6696 91.8387 95.5024C95.5045 93.3352 99.6665 92.139 103.928 92.0278L104.568 116.882Z" fill="#E8EAED" stroke="#202123" stroke-width="1.5" stroke-linecap="round" stroke-linejoin="round"></path> </svg> 