<?xml version="1.0" encoding="UTF-8"?> <svg xmlns="http://www.w3.org/2000/svg" width="318" height="665" viewBox="0 0 318 665" fill="none"> <g clip-path="url(#clip0_1194_18231)"> <path d="M135.072 385.71L86.0994 401.259C80.1151 403.158 74.5935 406.287 69.8889 410.445L53.4249 425.001C49.4152 428.547 46.9433 433.515 46.5327 438.852L39.9712 523.765C39.7269 526.909 40.1684 530.069 41.2651 533.026C42.3618 535.983 44.0875 538.666 46.3231 540.891L100.976 595.257C103.749 598.015 105.88 601.351 107.217 605.027L116.491 630.501C117.883 634.33 118.377 638.427 117.936 642.477L106.191 750.669L217.04 703.052L200.102 642.973L104.295 460.698C104.295 460.698 95.9359 480.547 87.2682 479.114C87.2682 479.114 92.5945 456.717 89.8486 444.994C89.8486 444.994 144.049 416.036 149.927 408.383C159.521 395.844 168.662 378.829 135.072 385.71Z" fill="white" stroke="#202123" stroke-width="1.75" stroke-linecap="round" stroke-linejoin="round"></path> <path d="M50.7009 427.879C50.7009 427.879 59.1039 426.313 63.9339 432.709L50.7009 427.879Z" fill="white"></path> <path d="M50.7009 427.879C50.7009 427.879 59.1039 426.313 63.9339 432.709" stroke="#202123" stroke-width="1.75" stroke-linecap="round" stroke-linejoin="round"></path> <path d="M47.7454 433.26C47.7454 433.26 57.99 432.356 63.9118 441.2L47.7454 433.26Z" fill="white"></path> <path d="M47.7454 433.26C47.7454 433.26 57.99 432.356 63.9118 441.2" stroke="#202123" stroke-width="1.75" stroke-linecap="round" stroke-linejoin="round"></path> <path d="M40.1145 528.341C40.1145 528.341 50.315 529.157 58.3982 525.165L40.1145 528.341Z" fill="white"></path> <path d="M40.1145 528.341C40.1145 528.341 50.315 529.157 58.3982 525.165" stroke="#202123" stroke-width="1.75" stroke-linecap="round" stroke-linejoin="round"></path> <path d="M43.5 537.34C43.5 537.34 56.1374 537.792 62.0481 533.656L43.5 537.34Z" fill="white"></path> <path d="M43.5 537.34C43.5 537.34 56.1374 537.792 62.0481 533.656" stroke="#202123" stroke-width="1.75" stroke-linecap="round" stroke-linejoin="round"></path> <path d="M89.8595 444.994C85.876 442.196 82.6541 438.447 80.4861 434.088L89.8595 444.994Z" fill="white"></path> <path d="M89.8595 444.994C85.876 442.196 82.6541 438.447 80.4861 434.088" stroke="#202123" stroke-width="1.75" stroke-linecap="round" stroke-linejoin="round"></path> <path d="M87.2681 479.113C87.2681 479.113 78.8762 481.826 76.792 481.87L87.2681 479.113Z" fill="white"></path> <path d="M87.2681 479.113C87.2681 479.113 78.8762 481.826 76.792 481.87" stroke="#202123" stroke-width="1.75" stroke-linecap="round" stroke-linejoin="round"></path> <path d="M108.176 509.55C108.176 509.55 95.8805 497.762 75.259 503.882L108.176 509.55Z" fill="white"></path> <path d="M108.176 509.55C108.176 509.55 95.8805 497.762 75.259 503.882" stroke="#202123" stroke-width="1.75" stroke-linecap="round" stroke-linejoin="round"></path> <path d="M106.698 513.63C106.698 513.63 100.402 511.259 92.0869 515.042L106.698 513.63Z" fill="white"></path> <path d="M106.698 513.63C106.698 513.63 100.402 511.259 92.0869 515.042" stroke="#202123" stroke-width="1.75" stroke-linecap="round" stroke-linejoin="round"></path> <path d="M373.301 -0.653449L13.7237 101.233C6.69216 103.226 2.60709 110.541 4.59948 117.573L140.336 596.621C142.328 603.653 149.644 607.738 156.675 605.746L516.253 503.859C523.285 501.866 527.37 494.551 525.377 487.519L389.641 8.47089C387.648 1.43925 380.333 -2.64585 373.301 -0.653449Z" fill="white" stroke="#202123" stroke-width="1.75" stroke-linecap="round" stroke-linejoin="round"></path> <path d="M520.965 487.738L385.715 10.4079C384.193 5.03458 378.603 1.91296 373.229 3.43549L15.8266 104.706C10.4533 106.228 7.33159 111.819 8.85411 117.192L144.104 594.522C145.626 599.895 151.216 603.017 156.59 601.494L513.992 500.224C519.366 498.701 522.487 493.111 520.965 487.738Z" fill="#E8EAED" stroke="#202123" stroke-width="1.5" stroke-linecap="round" stroke-linejoin="round"></path> <path d="M507.975 488.656L374.175 16.4405C374.065 16.0538 373.663 15.8291 373.276 15.9387L22.3454 115.375C21.9587 115.485 21.734 115.887 21.8436 116.274L155.644 588.49C155.754 588.876 156.156 589.101 156.543 588.991L507.473 489.555C507.86 489.445 508.085 489.043 507.975 488.656Z" fill="white"></path> <path d="M406.118 216.27C409.528 228.273 411.363 240.67 411.576 253.146C412.745 321.33 365.261 385.478 292.953 406.022C221.065 426.39 147.5 397.2 112.444 339.25C105.756 328.197 100.586 316.294 97.0714 303.862C74.2334 223.262 124.894 138.305 210.225 114.121C295.556 89.9377 383.28 135.658 406.118 216.27Z" fill="white" stroke="#202123" stroke-width="1.75" stroke-linecap="round" stroke-linejoin="round"></path> <path d="M281.794 366.621C230.394 381.189 176.205 361.107 150.015 317.901C145.132 309.823 141.356 301.125 138.789 292.041C122.137 233.286 159.201 171.146 221.407 153.524C283.613 135.902 347.771 169.348 364.423 228.103C366.914 236.873 368.256 245.929 368.415 255.044C369.275 306.025 333.667 351.921 281.794 366.621Z" fill="#E8EAED"></path> <path d="M411.576 253.136C412.745 321.319 365.261 385.467 292.953 406.011C221.065 426.379 147.501 397.189 112.444 339.239L251.589 260.061L411.576 253.136Z" fill="white"></path> <path d="M282.689 276.474L234.86 290.026C232.147 290.795 230.571 293.617 231.34 296.33L232.377 299.991C233.146 302.704 235.968 304.28 238.681 303.511L286.51 289.959C289.223 289.19 290.799 286.368 290.031 283.655L288.994 279.994C288.225 277.281 285.402 275.705 282.689 276.474Z" fill="white"></path> <path d="M137.366 231.456C148.713 194.458 179.27 163.206 220.811 151.428C233.285 147.876 246.235 146.28 259.198 146.698L262.605 116.471C245.722 115.774 228.836 117.777 212.585 122.404C159.928 137.324 121.222 176.946 106.842 223.858L137.366 231.456Z" fill="#E8EAED" stroke="#202123" stroke-width="1.5" stroke-linecap="round" stroke-linejoin="round"></path> <path d="M136.583 292.648C139.201 301.901 143.055 310.759 148.041 318.982L120.373 334.729C110.658 318.704 104.362 300.842 101.882 282.267C99.4015 263.692 100.79 244.804 105.96 226.791L136.495 234.422C131.164 253.469 131.194 273.617 136.583 292.648Z" fill="#E8EAED" stroke="#202123" stroke-width="1.5" stroke-linecap="round" stroke-linejoin="round"></path> <path d="M397.34 218.752C400.554 230.073 402.278 241.766 402.468 253.533L370.653 254.911C370.503 245.625 369.143 236.398 366.606 227.464C353.373 180.74 310.642 149.708 262.385 146.852L265.804 116.625C326.731 120.452 380.611 159.71 397.34 218.752Z" fill="#80858B" stroke="#202123" stroke-width="1.5" stroke-linecap="round" stroke-linejoin="round"></path> <path d="M271.803 331.366C237.397 341.115 201.138 327.727 183.582 298.802C180.31 293.382 177.781 287.548 176.062 281.455C164.924 242.142 189.725 200.557 231.343 188.757C272.96 176.958 315.902 199.344 327.05 238.657C328.721 244.533 329.622 250.601 329.73 256.709C330.359 290.873 306.517 321.53 271.803 331.366Z" fill="#E8EAED" stroke="#202123" stroke-width="1.5" stroke-linecap="round" stroke-linejoin="round"></path> <path d="M207.146 221.225L190.647 236.013L186.785 215.114L183.702 198.415C183.631 197.978 183.672 197.531 183.819 197.114C183.966 196.697 184.215 196.323 184.544 196.027C184.873 195.731 185.271 195.523 185.701 195.42C186.131 195.318 186.581 195.326 187.008 195.442L203.285 200.326L223.64 206.423L207.146 221.225Z" fill="#27B4B8"></path> <path d="M269.454 323.074C239.051 331.686 207.005 319.864 191.533 294.302C188.652 289.508 186.427 284.349 184.917 278.963C175.069 244.226 196.981 207.471 233.769 197.05C270.556 186.629 308.491 206.412 318.339 241.16C319.816 246.354 320.613 251.718 320.71 257.117C321.206 287.256 300.132 314.373 269.454 323.074Z" fill="white"></path> <path opacity="0.57" d="M411.576 253.136C412.745 321.319 365.261 385.467 292.953 406.011C221.065 426.379 147.501 397.189 112.444 339.239L120.373 334.729L148.041 318.982L251.589 260.05L370.686 254.9L402.501 253.522L411.576 253.136Z" fill="white"></path> <path d="M281.604 278.098L233.701 291.672C231.82 292.205 230.727 294.162 231.26 296.043L232.456 300.265C232.989 302.146 234.946 303.239 236.827 302.706L284.731 289.133C286.611 288.6 287.704 286.643 287.171 284.762L285.975 280.539C285.442 278.658 283.485 277.565 281.604 278.098Z" fill="#27B4B8"></path> <path d="M345.954 410.666L135.996 470.158L138.362 478.508L348.32 419.016L345.954 410.666Z" fill="#E8EAED"></path> <path d="M368.667 490.827L158.709 550.318L161.075 558.668L371.033 499.177L368.667 490.827Z" fill="#E8EAED"></path> <path d="M335.75 517.474L163.245 566.354L165.611 574.704L338.116 525.824L335.75 517.474Z" fill="#E8EAED"></path> <path d="M355.036 442.737L145.078 502.229L147.444 510.579L357.402 451.087L355.036 442.737Z" fill="#E8EAED"></path> <path d="M418.864 407.318L140.537 486.183L142.903 494.533L421.23 415.668L418.864 407.318Z" fill="#E8EAED"></path> <path d="M314.971 58.1697L37.2578 136.277L39.601 144.609L317.314 66.5013L314.971 58.1697Z" fill="#E8EAED"></path> <path d="M404.443 446.052L149.627 518.255L151.993 526.605L406.809 454.402L404.443 446.052Z" fill="#E8EAED"></path> <path d="M105.375 521.25C116.403 515.868 91.8775 438.036 91.8775 438.036C91.8775 438.036 63.2059 377.384 99.7731 374.417C135.811 371.495 127.177 456.562 151.106 479.974C175.036 503.385 182.788 549.017 196.606 558.975C210.423 568.933 228.773 595.367 221.352 616.584C213.93 637.801 217.051 702.963 217.051 702.963L121.663 595.355L105.375 521.25Z" fill="white"></path> <path d="M105.375 521.25C116.403 515.868 91.8775 438.036 91.8775 438.036C91.8775 438.036 63.2059 377.384 99.7731 374.417C135.811 371.495 127.177 456.562 151.106 479.974C175.036 503.385 182.788 549.017 196.606 558.975C210.423 568.933 228.773 595.367 221.352 616.584C213.93 637.801 217.051 702.963 217.051 702.963" stroke="#202123" stroke-width="1.75" stroke-linecap="round" stroke-linejoin="round"></path> <path d="M113.202 411.243L101.371 415.01C99.3334 415.658 97.122 415.471 95.2229 414.489C93.3238 413.507 91.8924 411.811 91.2438 409.774L86.5001 394.874C86.0849 393.57 85.9307 392.197 86.0462 390.833C86.1616 389.469 86.5445 388.142 87.173 386.926C87.8015 385.711 88.6633 384.631 89.7092 383.748C90.7551 382.865 91.9646 382.197 93.2686 381.782L100.624 379.44C103.257 378.605 106.113 378.85 108.566 380.119C111.019 381.389 112.867 383.581 113.705 386.212L118.445 401.102C119.094 403.139 118.907 405.351 117.925 407.25C116.943 409.149 115.247 410.58 113.209 411.229L113.202 411.243Z" fill="white" stroke="#202123" stroke-width="1.75" stroke-linecap="round" stroke-linejoin="round"></path> <path d="M105 439.326L121.663 434.484" stroke="#202123" stroke-width="1.75" stroke-linecap="round" stroke-linejoin="round"></path> <path d="M103.479 445.997L125.732 439.127" stroke="#202123" stroke-width="1.75" stroke-linecap="round" stroke-linejoin="round"></path> <path d="M108.375 451.556L124.332 446.726" stroke="#202123" stroke-width="1.75" stroke-linecap="round" stroke-linejoin="round"></path> <path d="M149.132 525.43C149.132 525.43 162.476 513.3 161.946 503L149.132 525.43Z" fill="white"></path> <path d="M149.132 525.43C149.132 525.43 162.476 513.3 161.946 503" stroke="#202123" stroke-width="1.75" stroke-linecap="round" stroke-linejoin="round"></path> <path d="M161.649 522.739C161.649 522.739 168.265 516.42 167.427 511.392L161.649 522.739Z" fill="white"></path> <path d="M161.649 522.739C161.649 522.739 168.265 516.42 167.427 511.392" stroke="#202123" stroke-width="1.75" stroke-linecap="round" stroke-linejoin="round"></path> </g> <defs> <clipPath id="clip0_1194_18231"> <rect width="318" height="665" fill="white"></rect> </clipPath> </defs> </svg> 