<?xml version="1.0" encoding="UTF-8"?> <svg xmlns="http://www.w3.org/2000/svg" width="280" height="280" viewBox="0 0 280 280" fill="none"> <path d="M140 280C217.32 280 280 217.32 280 140C280 62.6801 217.32 0 140 0C62.6801 0 0 62.6801 0 140C0 217.32 62.6801 280 140 280Z" fill="white"></path> <path opacity="0.52" d="M63.1481 69.6096L229.815 152.366L69.5914 215.926L196.739 58.5186L63.1481 69.6096Z" stroke="#80858B" stroke-width="1.5" stroke-linecap="round" stroke-linejoin="round"></path> <path opacity="0.52" d="M197.407 58.5186L229.815 152.037" stroke="#80858B" stroke-width="1.5" stroke-linecap="round" stroke-linejoin="round"></path> <path d="M202.037 104.006C202.037 134.551 177.999 146.568 176.33 147.361L176.238 147.407L92.3837 145.632C92.3837 145.632 82.2514 124.618 82.6015 103.64C82.9516 82.6624 90.5199 70.3619 101.759 66.0182C110.053 62.817 134.643 55.8844 151.345 54.9271C157.307 54.5823 162.259 54.9992 165.112 56.6152C175.97 62.7655 181.644 76.8725 181.644 76.8725C181.644 76.8725 202.037 75.4983 202.037 104.006Z" fill="#E8EAED" stroke="#202123" stroke-width="1.5" stroke-linecap="round" stroke-linejoin="round"></path> <path d="M178.889 163.803V204.721C178.891 208.776 178.072 212.789 176.481 216.517C170.134 221.785 160.098 225.185 148.791 225.185C144.899 225.193 141.018 224.774 137.217 223.936C134.359 223.323 131.57 222.426 128.889 221.258C126.09 220.053 123.471 218.464 121.106 216.537C119.518 212.809 118.701 208.796 118.704 204.742V164.133C118.724 157.248 121.46 150.65 126.314 145.782C131.168 140.913 137.745 138.169 144.609 138.148H152.984C159.791 138.169 166.318 140.868 171.163 145.666C176.007 150.463 178.781 156.976 178.889 163.803Z" fill="#E8EAED" stroke="#202123" stroke-width="1.5" stroke-linecap="round" stroke-linejoin="round"></path> <path d="M89.09 127.984C82.8748 128.938 78.8184 136.315 80.0283 144.462C81.2382 152.608 87.2576 158.444 93.4728 157.49C99.688 156.536 95.3052 127.056 89.09 127.984Z" fill="white" stroke="#202123" stroke-width="1.5" stroke-linecap="round" stroke-linejoin="round"></path> <path d="M178.842 160.737C178.842 160.737 160.451 185.352 132.124 193.189C129.424 193.951 126.677 194.533 123.9 194.933C120.948 195.355 117.968 195.563 114.986 195.555C108.412 195.555 102.653 195.218 97.9714 193.812C95.6117 193.174 93.404 192.063 91.4801 190.547C91.3151 190.428 91.1811 190.308 91.0419 190.184C87.3863 187.018 85.3704 181.989 85.3704 174.127C85.3704 174.127 88.3659 130.179 90.1705 128.316V114.963C90.1705 92.5741 108.324 74.2593 130.49 74.2593H138.523C160.693 74.2593 178.842 84.0161 178.842 106.4V133.2C181.662 131.394 184.276 125.441 191.886 134.549C204.24 149.293 181.673 161.479 178.842 160.737Z" fill="white" stroke="#202123" stroke-width="1.5" stroke-linecap="round" stroke-linejoin="round"></path> <path d="M184.509 122.494C177.601 134.562 174.887 125.845 174.887 125.845C174.887 125.845 173.742 111.337 161.577 109.509C149.411 107.681 148.727 90.3406 148.727 90.3406C141.166 100.612 122.314 97.4148 122.314 97.4148C127.369 96.2769 130.243 88.9711 130.243 88.9711C130.243 88.9711 127.136 89.1152 122.05 90.9327C116.834 92.8643 111.914 95.5067 107.43 98.7843C94.3785 108.139 88.1481 97.873 88.1481 97.873L96.7454 80.9856L115.908 70.2611L134.319 68.2686L155.864 65.926L182.951 88.9711C182.951 88.9711 191.418 110.425 184.509 122.494Z" fill="#E8EAED"></path> <path d="M176.111 163.148C176.111 163.148 149.514 216.399 136.296 222.407" stroke="#202123" stroke-width="1.5" stroke-linecap="round" stroke-linejoin="round"></path> <path d="M119.63 195.556C119.63 195.556 126.315 218.309 129.815 220.556" stroke="#202123" stroke-width="1.5" stroke-linecap="round" stroke-linejoin="round"></path> <path d="M156.667 198.941C156.667 198.941 168.241 201.004 177.963 194.63" stroke="#202123" stroke-width="1.5" stroke-linecap="round" stroke-linejoin="round"></path> <path d="M156.204 202.037C157.482 202.037 158.519 201.001 158.519 199.722C158.519 198.444 157.482 197.407 156.204 197.407C154.925 197.407 153.889 198.444 153.889 199.722C153.889 201.001 154.925 202.037 156.204 202.037Z" fill="#202123" stroke="#202123" stroke-width="1.75" stroke-linecap="round" stroke-linejoin="round"></path> <path d="M137.222 222.589C137.222 222.839 137.194 223.088 137.141 223.333C134.309 222.788 131.544 221.993 128.889 220.961C129.307 220.156 130.02 219.503 130.912 219.109C131.805 218.715 132.821 218.604 133.794 218.795C134.766 218.985 135.636 219.466 136.26 220.157C136.883 220.848 137.223 221.708 137.222 222.594V222.589Z" fill="#202123" stroke="#202123" stroke-width="1.75" stroke-linecap="round" stroke-linejoin="round"></path> <path d="M184.524 122.494C177.653 134.562 174.954 125.845 174.954 125.845C174.954 125.845 173.816 111.337 161.717 109.509C149.618 107.681 148.938 90.3406 148.938 90.3406C141.418 100.612 122.67 97.4148 122.67 97.4148C127.697 96.2769 130.556 88.9711 130.556 88.9711C130.556 88.9711 127.465 89.1152 122.407 90.9327C124.293 84.7544 128.413 73.4275 134.604 68.2789L156.036 65.926L182.974 88.9711C182.974 88.9711 191.395 110.425 184.524 122.494Z" fill="#E8EAED"></path> <path d="M191.852 134.867C188.928 142.06 184.509 148.545 178.889 153.889V133.545C181.697 131.748 184.893 131.143 187.839 132.157C189.387 132.699 190.769 133.632 191.852 134.867V134.867Z" fill="#E8EAED" stroke="#202123" stroke-width="1.75" stroke-linecap="round" stroke-linejoin="round"></path> <path d="M102.57 125.185H100.578C99.3384 125.185 98.3333 126.07 98.3333 127.161V136.173C98.3333 137.264 99.3384 138.148 100.578 138.148H102.57C103.81 138.148 104.815 137.264 104.815 136.173V127.161C104.815 126.07 103.81 125.185 102.57 125.185Z" fill="#202123" stroke="#202123" stroke-width="0.75" stroke-miterlimit="10"></path> <path d="M186.296 140.926C186.296 140.926 181.788 141.832 181.667 149.259Z" fill="white"></path> <path d="M186.296 140.926C186.296 140.926 181.788 141.832 181.667 149.259" stroke="#202123" stroke-width="1.75" stroke-linecap="round" stroke-linejoin="round"></path> <path d="M107.437 113.148H94.7852C94.6993 113.148 94.6296 113.21 94.6296 113.287V117.639C94.6296 117.716 94.6993 117.778 94.7852 117.778H107.437C107.523 117.778 107.593 117.716 107.593 117.639V113.287C107.593 113.21 107.523 113.148 107.437 113.148Z" fill="#202123"></path> <path d="M88.1481 97.9536C88.1481 97.9536 94.3591 108.199 107.413 98.8626C120.466 89.5259 130.217 89.074 130.217 89.074C130.217 89.074 127.34 96.3564 122.293 97.4965C122.293 97.4965 141.123 100.686 148.69 90.4401C148.69 90.4401 149.368 107.742 161.526 109.56C173.684 111.378 174.833 125.856 174.833 125.856C174.833 125.856 177.545 134.546 184.444 122.507" stroke="#202123" stroke-width="1.5" stroke-linecap="round" stroke-linejoin="round"></path> <path d="M123.908 194.868C120.903 195.32 117.871 195.549 114.834 195.556C108.147 195.556 102.276 195.201 97.5348 193.751C95.1344 193.088 92.8873 191.939 90.9259 190.372C92.4957 186.611 103.819 172.407 110.931 172.407C114.85 172.407 118.931 172.886 121.522 175.539C124.112 178.193 124.755 193.02 123.908 194.868Z" fill="#E8EAED" stroke="#202123" stroke-width="1.5" stroke-linecap="round" stroke-linejoin="round"></path> <path d="M113.827 117.778C113.827 117.778 100.845 147.767 107.779 153.961C107.779 153.961 111.49 155.882 115 153.961" fill="white"></path> <path d="M113.827 117.778C113.827 117.778 100.845 147.767 107.779 153.961C107.779 153.961 111.49 155.882 115 153.961" stroke="#202123" stroke-width="1.5" stroke-linecap="round" stroke-linejoin="round"></path> <path d="M178.817 160.221C178.817 160.221 106.675 168.991 111.531 162.77C116.387 156.548 111.531 154.206 111.531 154.206C111.531 154.206 110.985 139.849 118.555 117.186C118.555 117.186 115.604 86.3052 135.472 74.2593H138.443C160.639 74.2593 178.817 83.9579 178.817 106.208V132.848C181.639 131.053 184.261 125.136 191.882 134.19C204.252 148.846 181.65 160.959 178.817 160.221Z" fill="#E8EAED" stroke="#202123" stroke-width="1.75" stroke-linecap="round" stroke-linejoin="round"></path> <path d="M117.756 159.933C120.311 156.661 118.533 158.704 117.848 155.729C117.534 154.366 116.872 153.11 115.926 152.082C116.069 147.688 117.015 135.541 122.662 118.63L122.943 117.785L122.857 116.894C122.857 116.623 120.541 89.7512 136.687 78.8889H138.415C149.082 78.8889 158.026 81.2396 164.277 85.69C170.922 90.4118 174.285 97.3819 174.285 106.4V140.503L180.735 136.406C181.485 135.904 182.19 135.336 182.841 134.711C183.298 134.249 183.813 133.85 184.374 133.523C184.374 133.523 185.606 133.743 188.259 136.898C191.617 140.877 191.106 143.765 190.431 145.604C188.453 150.956 181.231 155.119 178.91 155.79L176.866 155.247L175.174 157.496C174.965 157.711 116.396 161.664 117.756 159.933Z" fill="#80858B"></path> <path d="M130.947 85.6508L130.514 85.0706C130.174 81.9895 130.957 82.1231 131.71 82.1231C132.575 82.1231 132.575 82.1231 132.802 81.2963C133.131 80.1021 133.666 78.9743 134.384 77.9637C134.059 77.6402 133.74 77.3372 133.436 77.0188C133.361 76.965 133.301 76.8944 133.259 76.8127C133.217 76.7311 133.195 76.6407 133.195 76.549C133.195 76.4573 133.217 76.3669 133.259 76.2852C133.301 76.2036 133.361 76.1329 133.436 76.0791C133.989 75.5143 134.549 74.9563 135.115 74.4051C135.481 74.0508 135.718 74.0508 136.084 74.4051C136.45 74.7594 136.682 75.0521 136.939 75.3346C137.707 74.9494 138.367 74.5643 139.062 74.2819C139.758 73.9994 140.464 73.8197 141.216 73.5835C141.216 73.147 141.216 72.6746 141.216 72.2022C141.216 71.7298 141.499 71.5141 142.076 71.586C142.75 71.6772 143.433 71.6772 144.106 71.586C144.668 71.5038 144.931 71.7144 144.931 72.1868C144.931 72.6592 144.931 73.1316 144.931 73.4757L149.274 75.2421C149.455 75.0367 149.753 74.667 150.083 74.3332C150.134 74.2559 150.203 74.1923 150.284 74.1483C150.366 74.1043 150.457 74.0813 150.55 74.0813C150.642 74.0813 150.733 74.1043 150.815 74.1483C150.896 74.1923 150.965 74.2559 151.016 74.3332C151.572 74.9049 152.137 75.4698 152.711 76.0278C152.832 76.1523 152.9 76.319 152.9 76.4925C152.9 76.666 152.832 76.8327 152.711 76.9572C152.402 77.2705 152.077 77.5734 151.732 77.9021C152.624 79.1635 153.238 80.5984 153.535 82.1128H154.772C155.411 82.1128 155.571 82.2566 155.581 82.8728C155.581 83.6482 155.581 84.4133 155.581 85.1938C155.581 85.6303 155.37 85.8305 154.942 85.8254H153.577C153.297 87.3659 152.695 88.8305 151.809 90.1234C152.108 90.4058 152.422 90.6883 152.721 90.9861C153.02 91.2839 153.087 91.5869 152.721 91.9515C152.172 92.5129 151.615 93.0675 151.052 93.6152C150.924 93.7385 150.753 93.8075 150.575 93.8075C150.397 93.8075 150.226 93.7385 150.099 93.6152C149.81 93.3277 149.547 93.0144 149.264 92.7012C147.963 93.62 146.478 94.2471 144.91 94.5395C144.91 94.9452 144.91 95.3355 144.91 95.7257C144.908 95.902 144.836 96.0702 144.711 96.1948C144.586 96.3195 144.417 96.3906 144.24 96.3933C143.45 96.3933 142.66 96.3933 141.87 96.3933C141.391 96.3933 141.216 96.2136 141.2 95.7411C141.2 95.3509 141.2 94.9555 141.2 94.5498C139.623 94.2515 138.127 93.6194 136.816 92.6961C136.548 92.9888 136.3 93.2866 136.012 93.5639C135.723 93.8412 135.414 93.9182 135.074 93.5639C134.482 92.9939 133.905 92.4085 133.328 91.8231C133.272 91.7686 133.227 91.7035 133.197 91.6316C133.167 91.5598 133.151 91.4826 133.151 91.4046C133.151 91.3266 133.167 91.2495 133.197 91.1776C133.227 91.1057 133.272 91.0406 133.328 90.9861C133.647 90.6883 133.987 90.4161 134.322 90.1337C133.423 88.8305 132.814 87.3512 132.534 85.7946C132.174 85.8201 131.812 85.8201 131.452 85.7946C131.278 85.7689 131.108 85.7205 130.947 85.6508V85.6508ZM148.713 83.9871C148.668 82.4827 148.036 81.055 146.953 80.0068C145.869 78.9586 144.419 78.3723 142.908 78.3723C141.398 78.3723 139.948 78.9586 138.864 80.0068C137.78 81.055 137.149 82.4827 137.104 83.9871C137.081 84.7612 137.214 85.5321 137.495 86.2541C137.777 86.9761 138.201 87.6344 138.742 88.1902C139.283 88.7459 139.931 89.1877 140.646 89.4894C141.362 89.7911 142.131 89.9466 142.908 89.9466C143.686 89.9466 144.455 89.7911 145.171 89.4894C145.886 89.1877 146.534 88.7459 147.075 88.1902C147.616 87.6344 148.04 86.9761 148.322 86.2541C148.603 85.5321 148.736 84.7612 148.713 83.9871V83.9871Z" fill="white" stroke="#202123" stroke-width="1.75" stroke-linecap="round" stroke-linejoin="round"></path> <path d="M145.106 84.0077C145.105 84.4418 144.975 84.8658 144.732 85.226C144.489 85.5862 144.144 85.8665 143.741 86.0312C143.338 86.1959 142.895 86.2377 142.468 86.1512C142.041 86.0648 141.649 85.854 141.343 85.5456C141.036 85.2372 140.829 84.8451 140.746 84.4189C140.663 83.9927 140.709 83.5516 140.878 83.1515C141.047 82.7514 141.332 82.4104 141.695 82.1715C142.059 81.9327 142.486 81.8068 142.921 81.8099C143.21 81.8112 143.495 81.8691 143.761 81.9803C144.026 82.0915 144.268 82.2537 144.47 82.4578C144.673 82.6619 144.834 82.9038 144.943 83.1697C145.052 83.4357 145.107 83.7204 145.106 84.0077V84.0077Z" fill="#202123" stroke="#202123" stroke-width="1.75" stroke-linecap="round" stroke-linejoin="round"></path> <path d="M128.886 86.2363L128.453 85.656C128.113 82.575 128.896 82.7085 129.649 82.7085C130.514 82.7085 130.514 82.7085 130.741 81.8818C131.07 80.6876 131.605 79.5598 132.323 78.5491C131.998 78.2256 131.679 77.9227 131.375 77.6043C131.3 77.5505 131.24 77.4799 131.198 77.3982C131.156 77.3165 131.134 77.2261 131.134 77.1344C131.134 77.0427 131.156 76.9524 131.198 76.8707C131.24 76.789 131.3 76.7184 131.375 76.6646C131.928 76.0997 132.488 75.5417 133.054 74.9906C133.42 74.6362 133.657 74.6362 134.023 74.9906C134.389 75.3449 134.621 75.6376 134.878 75.92C135.646 75.5349 136.306 75.1497 137.001 74.8673C137.697 74.5849 138.403 74.4052 139.155 74.169C139.155 73.7325 139.155 73.2601 139.155 72.7876C139.155 72.3152 139.438 72.0995 140.015 72.1714C140.689 72.2627 141.372 72.2627 142.045 72.1714C142.607 72.0893 142.87 72.2998 142.87 72.7722C142.87 73.2447 142.87 73.7171 142.87 74.0611L147.213 75.8276C147.394 75.6222 147.692 75.2524 148.022 74.9187C148.073 74.8413 148.142 74.7778 148.223 74.7338C148.305 74.6898 148.396 74.6667 148.489 74.6667C148.581 74.6667 148.672 74.6898 148.754 74.7338C148.835 74.7778 148.904 74.8413 148.955 74.9187C149.522 75.4733 150.083 76.033 150.64 76.5978C150.761 76.7224 150.829 76.8891 150.829 77.0625C150.829 77.236 150.761 77.4027 150.64 77.5273C150.331 77.8405 150.006 78.1435 149.661 78.4721C150.552 79.7336 151.167 81.1684 151.464 82.6828H152.711C153.35 82.6828 153.51 82.8266 153.52 83.4428C153.52 84.2182 153.52 84.9833 153.52 85.7638C153.52 86.2003 153.309 86.4006 152.881 86.3955H151.516C151.236 87.936 150.634 89.4005 149.748 90.6935C150.047 90.9759 150.361 91.2583 150.66 91.5561C150.959 91.854 151.026 92.1569 150.66 92.5215C150.111 93.083 149.554 93.6375 148.991 94.1853C148.863 94.3086 148.692 94.3775 148.514 94.3775C148.336 94.3775 148.166 94.3086 148.038 94.1853C147.749 93.8977 147.486 93.5845 147.203 93.2712C145.902 94.19 144.417 94.8172 142.849 95.1096C142.849 95.5153 142.849 95.9055 142.849 96.2958C142.847 96.472 142.775 96.6403 142.65 96.7649C142.525 96.8895 142.356 96.9607 142.179 96.9633C141.389 96.9633 140.599 96.9633 139.809 96.9633C139.33 96.9633 139.155 96.7836 139.139 96.3112C139.139 95.9209 139.139 95.5255 139.139 95.1199C137.562 94.8216 136.066 94.1895 134.755 93.2661C134.487 93.5588 134.24 93.8566 133.951 94.1339C133.662 94.4112 133.353 94.4882 133.013 94.1339C132.421 93.5639 131.844 92.9786 131.267 92.3932C131.211 92.3386 131.166 92.2735 131.136 92.2017C131.106 92.1298 131.09 92.0526 131.09 91.9747C131.09 91.8967 131.106 91.8195 131.136 91.7476C131.166 91.6758 131.211 91.6107 131.267 91.5561C131.586 91.2583 131.926 90.9862 132.261 90.7037C131.362 89.4006 130.753 87.9213 130.473 86.3646C130.113 86.3902 129.751 86.3902 129.391 86.3646C129.218 86.3439 129.048 86.3007 128.886 86.2363V86.2363ZM146.842 84.5725C146.797 83.0682 146.166 81.6405 145.083 80.5922C143.999 79.544 142.548 78.9577 141.038 78.9577C139.528 78.9577 138.077 79.544 136.994 80.5922C135.91 81.6405 135.279 83.0682 135.234 84.5725C135.211 85.3467 135.344 86.1176 135.625 86.8395C135.906 87.5615 136.33 88.2199 136.871 88.7756C137.413 89.3314 138.06 89.7732 138.776 90.0749C139.492 90.3766 140.261 90.5321 141.038 90.5321C141.815 90.5321 142.584 90.3766 143.3 90.0749C144.016 89.7732 144.664 89.3314 145.205 88.7756C145.746 88.2199 146.17 87.5615 146.451 86.8395C146.732 86.1176 146.865 85.3467 146.842 84.5725V84.5725Z" fill="white" stroke="#202123" stroke-width="1.75" stroke-linecap="round" stroke-linejoin="round"></path> <path d="M143.236 84.5931C143.235 85.0272 143.104 85.4512 142.861 85.8115C142.618 86.1717 142.273 86.4519 141.87 86.6166C141.467 86.7813 141.024 86.8231 140.598 86.7367C140.171 86.6502 139.779 86.4395 139.473 86.1311C139.166 85.8227 138.958 85.4305 138.876 85.0043C138.793 84.5781 138.839 84.137 139.008 83.737C139.177 83.3369 139.461 82.9958 139.825 82.757C140.189 82.5181 140.615 82.3923 141.051 82.3953C141.339 82.3967 141.624 82.4546 141.89 82.5658C142.156 82.6769 142.397 82.8392 142.6 83.0433C142.803 83.2474 142.963 83.4893 143.073 83.7552C143.182 84.0211 143.237 84.3058 143.236 84.5931V84.5931Z" fill="white" stroke="#202123" stroke-width="1.75" stroke-linecap="round" stroke-linejoin="round"></path> <path d="M133.25 74.7903L135.26 74.0303C135.26 74.0303 136.228 74.477 136.378 75.0573L134.832 75.9405C134.832 75.9405 133.791 74.364 133.25 74.7903Z" fill="#202123" stroke="#202123" stroke-width="1.75" stroke-linecap="round" stroke-linejoin="round"></path> <path d="M139.433 72.0636L141.623 71.55H144.091L142.55 72.0636H139.433Z" fill="#202123" stroke="#202123" stroke-width="1.75" stroke-linecap="round" stroke-linejoin="round"></path> <path d="M143.024 74.0867V72.2484L144.797 71.7297L144.895 73.5013L143.024 74.0867Z" fill="#202123" stroke="#202123" stroke-width="1.75" stroke-linecap="round" stroke-linejoin="round"></path> <path d="M147.172 75.8531L142.829 74.0867L144.998 73.4551L147.981 74.9494L147.172 75.8531Z" fill="#202123" stroke="#202123" stroke-width="1.75" stroke-linecap="round" stroke-linejoin="round"></path> <path d="M148.357 74.6824L150.537 74.0303L152.814 76.3513L150.887 77.0445L148.357 74.6824Z" fill="#202123" stroke="#202123" stroke-width="1.75" stroke-linecap="round" stroke-linejoin="round"></path> <path d="M149.62 78.5028L151.49 77.9174C151.49 77.9174 152.814 76.9315 152.814 76.6388C152.814 76.3461 150.887 77.0445 150.887 77.0445L149.62 78.5028Z" fill="#202123" stroke="#202123" stroke-width="1.75" stroke-linecap="round" stroke-linejoin="round"></path> <path d="M151.423 82.7033C151.423 82.7033 150.939 79.7404 149.62 78.4926L151.49 77.9072C152.357 79.1822 152.969 80.6119 153.293 82.1179L151.423 82.7033Z" fill="#202123" stroke="#202123" stroke-width="1.75" stroke-linecap="round" stroke-linejoin="round"></path> <path d="M153.494 82.9703L155.287 82.272L155.364 85.5224L153.592 86.1951L153.494 82.9703Z" fill="#202123" stroke="#202123" stroke-width="1.75" stroke-linecap="round" stroke-linejoin="round"></path> <path d="M148.672 94.5499L151.047 92.0799L149.723 90.7243C149.723 90.7243 151.49 87.9411 151.49 86.4263L153.293 86.6214C153.293 86.6214 152.263 89.3994 151.593 90.1389L152.763 91.3713L150.532 93.9388L148.672 94.5499Z" fill="#202123" stroke="#202123" stroke-width="1.75" stroke-linecap="round" stroke-linejoin="round"></path> <path d="M142.695 95.1403L144.57 94.5549V96.2597L142.607 96.917L142.695 95.1403Z" fill="#202123" stroke="#202123" stroke-width="1.75" stroke-linecap="round" stroke-linejoin="round"></path> <path d="M139.83 79.1448C139.83 79.1448 135.435 79.2218 135.265 85.1117C135.265 85.1117 135.734 90.9091 142.375 90.1286C142.375 90.1286 137.336 87.977 137.022 85.2606C136.738 82.7906 136.651 81.969 139.83 79.1448Z" fill="#202123" stroke="#202123" stroke-width="1.75" stroke-linecap="round" stroke-linejoin="round"></path> <path d="M147.332 96.3727C147.847 96.0287 148.316 96.3162 148.78 96.5524C149.81 97.0659 149.81 97.0659 150.552 96.2238C151.646 95.0178 152.944 94.0117 154.385 93.2506C154.195 92.6806 154.004 92.1363 153.834 91.5869C153.778 91.4803 153.748 91.3619 153.746 91.2415C153.745 91.1211 153.772 91.002 153.826 90.8942C153.88 90.7864 153.959 90.6928 154.056 90.6213C154.153 90.5498 154.266 90.5023 154.385 90.4828C155.371 90.1405 156.359 89.817 157.348 89.5123C157.987 89.3121 158.26 89.4507 158.471 90.108C158.647 90.6574 158.786 91.2223 158.925 91.705C160.058 91.705 161.053 91.6434 162.016 91.705C162.98 91.7666 163.933 91.9925 164.953 92.1517C165.211 91.6382 165.499 91.0888 165.767 90.5342C165.801 90.4246 165.861 90.3247 165.942 90.2429C166.023 90.1611 166.122 90.0998 166.232 90.0642C166.341 90.0285 166.458 90.0194 166.571 90.0377C166.685 90.0561 166.793 90.1013 166.885 90.1696L169.781 91.628C169.885 91.6642 169.979 91.7241 170.056 91.8027C170.132 91.8814 170.19 91.9768 170.223 92.0814C170.257 92.1859 170.265 92.2968 170.249 92.4052C170.232 92.5137 170.19 92.6168 170.126 92.7063L169.358 94.2211L173.403 98.8427C173.738 98.7091 174.305 98.4524 174.892 98.2573C175.479 98.0621 175.789 98.2162 175.99 98.8016C176.333 99.7841 176.658 100.768 176.963 101.754C177.02 101.86 177.05 101.979 177.051 102.099C177.053 102.219 177.025 102.338 176.971 102.445C176.918 102.553 176.839 102.646 176.741 102.717C176.644 102.788 176.531 102.834 176.412 102.853C175.861 103.038 175.304 103.197 174.701 103.367C175.016 105.382 174.896 107.44 174.351 109.405L175.83 110.15C176.577 110.53 176.68 110.792 176.345 111.521C175.897 112.435 175.423 113.334 174.969 114.243C174.934 114.353 174.873 114.453 174.791 114.535C174.709 114.616 174.609 114.677 174.498 114.713C174.388 114.748 174.271 114.756 174.156 114.737C174.042 114.718 173.934 114.671 173.841 114.602L172.244 113.796C170.997 115.438 169.417 116.799 167.607 117.791C167.792 118.304 167.988 118.818 168.163 119.331C168.374 119.978 168.235 120.256 167.601 120.471C166.617 120.805 165.628 121.129 164.639 121.442C164.531 121.498 164.411 121.528 164.29 121.529C164.168 121.529 164.048 121.5 163.94 121.445C163.832 121.39 163.739 121.309 163.669 121.21C163.598 121.111 163.553 120.997 163.536 120.877C163.366 120.364 163.248 119.85 163.103 119.337C161.036 119.643 158.927 119.502 156.92 118.921C156.678 119.393 156.457 119.86 156.215 120.312C156.179 120.428 156.116 120.533 156.031 120.619C155.947 120.705 155.842 120.77 155.727 120.808C155.612 120.845 155.49 120.855 155.37 120.836C155.25 120.817 155.137 120.769 155.04 120.697C154.106 120.242 153.176 119.775 152.252 119.295C152.135 119.264 152.028 119.204 151.939 119.121C151.85 119.038 151.784 118.935 151.744 118.82C151.705 118.706 151.695 118.583 151.714 118.464C151.734 118.344 151.782 118.231 151.856 118.135C152.077 117.668 152.319 117.216 152.562 116.733C150.889 115.454 149.512 113.833 148.522 111.978C148.033 112.163 147.553 112.363 147.064 112.522C146.451 112.723 146.152 112.584 145.946 112.009C145.59 110.982 145.261 109.955 144.915 108.928C144.869 108.832 144.846 108.726 144.848 108.619C144.85 108.512 144.877 108.408 144.928 108.313C144.978 108.219 145.049 108.137 145.137 108.076C145.224 108.014 145.325 107.973 145.431 107.957C145.987 107.793 146.559 107.675 147.121 107.536C146.837 105.472 147.001 103.371 147.6 101.374C147.166 101.187 146.746 100.969 146.343 100.722C146.06 100.48 145.804 100.208 145.58 99.9107L147.332 96.3727ZM167.859 108.892C168.682 107.105 168.778 105.07 168.126 103.214C167.475 101.358 166.128 99.8261 164.367 98.9394C162.607 98.0528 160.57 97.8806 158.684 98.4591C156.799 99.0376 155.212 100.322 154.257 102.042C153.76 102.936 153.449 103.921 153.343 104.938C153.238 105.954 153.338 106.982 153.64 107.959C153.942 108.936 154.438 109.842 155.1 110.623C155.761 111.404 156.574 112.045 157.489 112.506C158.405 112.966 159.404 113.239 160.427 113.306C161.451 113.373 162.477 113.234 163.445 112.896C164.413 112.559 165.303 112.031 166.062 111.342C166.82 110.654 167.431 109.821 167.859 108.892Z" fill="white" stroke="#202123" stroke-width="1.75" stroke-linecap="round" stroke-linejoin="round"></path> <path d="M163.629 106.787C163.37 107.295 162.965 107.716 162.466 107.995C161.967 108.274 161.396 108.399 160.826 108.355C160.255 108.31 159.711 108.098 159.262 107.744C158.812 107.391 158.478 106.913 158.302 106.371C158.125 105.828 158.115 105.245 158.271 104.697C158.427 104.148 158.743 103.658 159.179 103.288C159.614 102.919 160.151 102.687 160.719 102.621C161.287 102.555 161.863 102.659 162.372 102.92C162.709 103.091 163.01 103.327 163.256 103.614C163.502 103.901 163.689 104.234 163.805 104.593C163.922 104.952 163.967 105.331 163.936 105.707C163.906 106.084 163.802 106.45 163.629 106.787Z" fill="#202123" stroke="#202123" stroke-width="1.75" stroke-linecap="round" stroke-linejoin="round"></path> <path d="M144.792 95.9567C145.307 95.6127 145.776 95.9002 146.24 96.1364C147.27 96.6499 147.27 96.6499 148.012 95.8078C149.106 94.6018 150.404 93.5956 151.845 92.8346C151.655 92.2646 151.464 91.7203 151.294 91.1709C151.238 91.0643 151.208 90.9459 151.206 90.8255C151.205 90.705 151.232 90.586 151.286 90.4782C151.34 90.3704 151.419 90.2768 151.516 90.2053C151.613 90.1338 151.726 90.0863 151.845 90.0668C152.831 89.7245 153.819 89.401 154.808 89.0963C155.447 88.896 155.72 89.0347 155.931 89.692C156.106 90.2414 156.246 90.8063 156.385 91.289C157.518 91.289 158.513 91.2273 159.476 91.289C160.44 91.3506 161.393 91.5765 162.413 91.7357C162.671 91.2222 162.959 90.6728 163.227 90.1182C163.261 90.0086 163.321 89.9087 163.402 89.8269C163.483 89.7451 163.582 89.6838 163.692 89.6481C163.801 89.6124 163.918 89.6034 164.031 89.6217C164.145 89.6401 164.253 89.6853 164.345 89.7536L167.241 91.2119C167.345 91.2482 167.439 91.3081 167.516 91.3867C167.592 91.4654 167.65 91.5608 167.683 91.6653C167.717 91.7699 167.725 91.8808 167.708 91.9892C167.692 92.0977 167.65 92.2007 167.586 92.2903L166.818 93.8051L170.863 98.4266C171.198 98.2931 171.765 98.0364 172.352 97.8413C172.939 97.6461 173.249 97.8002 173.449 98.3856C173.793 99.3681 174.118 100.352 174.423 101.338C174.48 101.444 174.51 101.562 174.511 101.683C174.513 101.803 174.485 101.922 174.431 102.029C174.377 102.137 174.299 102.23 174.201 102.301C174.104 102.372 173.991 102.418 173.872 102.437C173.321 102.622 172.764 102.781 172.161 102.951C172.459 104.956 172.327 107.002 171.775 108.953L173.254 109.698C174.001 110.078 174.104 110.34 173.769 111.069C173.321 111.983 172.847 112.882 172.393 113.791C172.358 113.901 172.297 114.001 172.215 114.083C172.133 114.164 172.033 114.225 171.922 114.261C171.812 114.296 171.694 114.304 171.58 114.285C171.466 114.266 171.358 114.219 171.265 114.15L169.668 113.344C168.421 114.986 166.841 116.347 165.03 117.339C165.216 117.852 165.412 118.366 165.587 118.879C165.798 119.526 165.659 119.804 165.025 120.019C164.041 120.353 163.052 120.677 162.063 120.99C161.955 121.046 161.835 121.076 161.714 121.077C161.592 121.077 161.472 121.048 161.364 120.993C161.256 120.938 161.163 120.857 161.092 120.758C161.022 120.659 160.977 120.545 160.96 120.425C160.79 119.912 160.671 119.398 160.527 118.885C158.46 119.191 156.351 119.05 154.344 118.469C154.102 118.941 153.881 119.408 153.638 119.86C153.603 119.976 153.54 120.081 153.455 120.167C153.37 120.253 153.266 120.318 153.151 120.356C153.036 120.393 152.913 120.403 152.794 120.384C152.674 120.365 152.561 120.317 152.464 120.245C151.529 119.79 150.6 119.323 149.676 118.844C149.559 118.812 149.451 118.752 149.363 118.669C149.274 118.586 149.207 118.483 149.168 118.368C149.129 118.254 149.119 118.131 149.138 118.012C149.158 117.892 149.206 117.779 149.279 117.683C149.501 117.216 149.743 116.764 149.985 116.281C148.313 115.002 146.936 113.381 145.946 111.526C145.456 111.711 144.977 111.911 144.488 112.07C143.875 112.271 143.576 112.132 143.37 111.557C143.014 110.53 142.684 109.503 142.339 108.476C142.293 108.38 142.27 108.274 142.272 108.167C142.274 108.06 142.301 107.956 142.351 107.861C142.401 107.767 142.473 107.685 142.56 107.624C142.648 107.562 142.748 107.521 142.854 107.505C143.411 107.341 143.983 107.223 144.544 107.084C144.261 105.02 144.424 102.919 145.024 100.922C144.59 100.735 144.169 100.517 143.766 100.27C143.484 100.028 143.228 99.7556 143.004 99.4588L144.792 95.9567ZM165.319 108.476C166.176 106.683 166.294 104.628 165.65 102.749C165.005 100.87 163.648 99.3173 161.869 98.4228C160.091 97.5284 158.031 97.3633 156.132 97.9629C154.232 98.5624 152.644 99.879 151.706 101.631C151.228 102.524 150.934 103.504 150.841 104.512C150.748 105.521 150.858 106.537 151.165 107.503C151.471 108.468 151.969 109.363 152.627 110.134C153.286 110.905 154.092 111.537 154.999 111.993C155.906 112.449 156.896 112.72 157.91 112.79C158.923 112.859 159.941 112.727 160.902 112.399C161.863 112.071 162.749 111.555 163.508 110.882C164.266 110.208 164.882 109.39 165.319 108.476V108.476Z" fill="white" stroke="#202123" stroke-width="1.75" stroke-linecap="round" stroke-linejoin="round"></path> <path d="M161.084 106.365C160.825 106.874 160.42 107.294 159.921 107.574C159.422 107.853 158.851 107.978 158.28 107.933C157.71 107.889 157.166 107.676 156.716 107.323C156.267 106.97 155.933 106.492 155.756 105.949C155.58 105.407 155.569 104.824 155.725 104.276C155.881 103.727 156.197 103.237 156.633 102.867C157.069 102.498 157.605 102.265 158.174 102.2C158.742 102.134 159.317 102.238 159.826 102.499C160.164 102.67 160.465 102.906 160.711 103.193C160.957 103.48 161.143 103.813 161.26 104.172C161.377 104.531 161.421 104.91 161.391 105.286C161.361 105.663 161.256 106.029 161.084 106.365Z" fill="white" stroke="#202123" stroke-width="1.75" stroke-linecap="round" stroke-linejoin="round"></path> <path d="M155.2 88.9834L158.008 89.2761C158.008 89.2761 158.878 90.3699 158.698 91.1504L156.379 91.2839C156.379 91.2839 156.086 88.8037 155.2 88.9834Z" fill="#202123" stroke="#202123" stroke-width="1.75" stroke-linecap="round" stroke-linejoin="round"></path> <path d="M163.954 89.6562L166.911 90.18L169.802 91.6384L167.607 91.4895L163.954 89.6562Z" fill="#202123" stroke="#202123" stroke-width="1.75" stroke-linecap="round" stroke-linejoin="round"></path> <path d="M166.844 93.8103L167.936 91.6587L170.327 92.0952L169.384 94.2313L166.844 93.8103Z" fill="#202123" stroke="#202123" stroke-width="1.75" stroke-linecap="round" stroke-linejoin="round"></path> <path d="M170.884 98.4472L166.844 93.8103L169.765 94.3495L172.373 97.8618L170.884 98.4472Z" fill="#202123" stroke="#202123" stroke-width="1.75" stroke-linecap="round" stroke-linejoin="round"></path> <path d="M172.97 97.7695L175.917 98.2882L177.206 102.35L174.531 102.026L172.97 97.7695Z" fill="#202123" stroke="#202123" stroke-width="1.75" stroke-linecap="round" stroke-linejoin="round"></path> <path d="M172.182 102.992L174.722 103.408C174.722 103.408 176.86 103.028 177.03 102.689C177.2 102.35 174.531 102.026 174.531 102.026L172.182 102.992Z" fill="#202123" stroke="#202123" stroke-width="1.75" stroke-linecap="round" stroke-linejoin="round"></path> <path d="M171.775 108.989C171.775 108.989 172.96 105.231 172.161 102.987L174.701 103.403C174.701 103.403 175.175 106.709 174.315 109.405L171.775 108.989Z" fill="#202123" stroke="#202123" stroke-width="1.75" stroke-linecap="round" stroke-linejoin="round"></path> <path d="M174.073 110.515L176.587 110.756L174.753 114.607L172.28 114.35L174.073 110.515Z" fill="#202123" stroke="#202123" stroke-width="1.75" stroke-linecap="round" stroke-linejoin="round"></path> <path d="M161.547 121.247L165.798 119.747L165.051 117.38C165.051 117.38 168.776 115.162 169.688 113.385L171.687 114.679C171.687 114.679 168.817 117.318 167.607 117.796L168.245 119.932L164.124 121.637L161.547 121.247Z" fill="#202123" stroke="#202123" stroke-width="1.75" stroke-linecap="round" stroke-linejoin="round"></path> <path d="M154.344 118.494L156.89 118.91L155.875 120.913L153.185 120.518L154.344 118.494Z" fill="#202123" stroke="#202123" stroke-width="1.75" stroke-linecap="round" stroke-linejoin="round"></path> <path d="M160.342 97.98C160.342 97.98 155.143 95.4741 151.449 102.283C151.449 102.283 148.553 109.354 156.807 112.353C156.807 112.353 152.17 106.864 153.422 103.485C154.545 100.424 154.921 99.4127 160.342 97.98Z" fill="#202123" stroke="#202123" stroke-width="1.75" stroke-linecap="round" stroke-linejoin="round"></path> <path d="M140.86 108.8C140.851 110.958 140.321 113.082 139.315 114.992C139.315 114.992 138.851 115.87 138.542 116.307C138.408 116.497 138.274 116.692 138.135 116.877C136.448 119.263 135.194 121.926 134.43 124.744C133.978 126.498 132.949 128.051 131.509 129.155L131.328 129.288C129.884 130.342 128.133 130.895 126.344 130.862C124.555 130.83 122.825 130.214 121.42 129.109C120.028 128.011 119.021 126.5 118.545 124.795C117.57 121.556 116.148 118.468 114.32 115.619C113.938 115.035 113.614 114.416 113.352 113.77C112.693 112.113 112.371 110.342 112.403 108.56C112.436 106.777 112.823 105.019 113.542 103.387C114.571 101.142 116.164 99.1989 118.167 97.7465C120.17 96.2941 122.515 95.3812 124.975 95.0962C127.435 94.8112 129.928 95.1637 132.212 96.1195C134.495 97.0754 136.493 98.6024 138.011 100.553C139.849 102.913 140.85 105.812 140.86 108.8V108.8Z" fill="#27B4B8" stroke="#202123" stroke-width="1.75" stroke-linecap="round" stroke-linejoin="round"></path> <path d="M134.265 128.816V129.54C134.264 130.23 133.988 130.891 133.499 131.379C133.009 131.867 132.345 132.142 131.653 132.143H121.925C121.234 132.142 120.572 131.868 120.083 131.381C119.595 130.894 119.319 130.234 119.318 129.545V128.842C119.318 128.628 119.403 128.423 119.555 128.272C119.707 128.12 119.913 128.035 120.127 128.035H133.477C133.58 128.035 133.683 128.054 133.778 128.093C133.874 128.132 133.961 128.19 134.034 128.262C134.107 128.335 134.166 128.421 134.205 128.516C134.245 128.611 134.265 128.713 134.265 128.816Z" fill="#E8EAED" stroke="#202123" stroke-width="1.75" stroke-linecap="round" stroke-linejoin="round"></path> <path d="M128.889 98.3334C128.889 98.3334 131.465 98.2871 132.98 100.12" stroke="white" stroke-linecap="round" stroke-linejoin="round"></path> <path d="M128.889 99.7918C128.889 99.7918 129.533 99.5402 130.563 100.562" stroke="white" stroke-linecap="round" stroke-linejoin="round"></path> <path d="M175.648 122.281C171.98 128.509 169.853 132.467 164.685 134.32C164.242 128.872 160.512 124.05 156.678 122.546C155.405 121.988 153.975 121.894 152.64 122.281C151.304 122.667 150.147 123.51 149.372 124.662C147.564 127.096 147.198 129.745 148.342 132.128C149.841 135.27 153.659 137.345 158.306 137.545C159.144 137.583 159.982 137.557 160.816 137.468C161.331 137.422 161.8 137.355 162.289 137.268H162.325C161.377 142.367 156.431 145.905 148.29 147.271C138.835 148.863 132.591 148.385 129.741 145.869C127.629 144 127.516 141.073 127.619 138.321L127.665 137.294C127.696 136.58 127.732 135.887 127.732 135.24H125.491C125.491 135.851 125.455 136.513 125.424 137.191C125.424 137.561 125.388 137.951 125.372 138.336C125.269 141.463 125.419 145.053 128.258 147.553C130.437 149.479 133.925 150.444 138.81 150.444C142.113 150.385 145.407 150.056 148.656 149.459C161.676 147.271 164.273 140.508 164.665 136.677C170.626 134.808 173.463 130.379 177.585 123.41L175.648 122.281ZM162.655 134.896C162.096 135.021 161.53 135.113 160.96 135.173C160.187 135.258 159.408 135.284 158.631 135.25C154.875 135.086 151.722 133.463 150.593 131.106C149.815 129.483 150.078 127.691 151.407 125.93C151.735 125.42 152.183 124.999 152.712 124.702C153.241 124.404 153.835 124.241 154.442 124.225C155.011 124.234 155.573 124.347 156.101 124.559C159.09 125.714 162.099 129.725 162.635 134.028C162.671 134.32 162.696 134.603 162.707 134.89C162.69 134.896 162.672 134.897 162.655 134.896Z" fill="#E8EAED"></path> <path d="M162.501 137.201C162.016 137.289 161.522 137.355 161.027 137.402C161.127 136.658 161.099 135.902 160.945 135.168C161.514 135.108 162.08 135.016 162.64 134.891C162.689 135.664 162.643 136.44 162.501 137.201Z" fill="#E8EAED"></path> <path d="M127.948 135.224C127.948 135.866 127.912 136.559 127.881 137.278L127.835 138.305H125.599C125.599 137.92 125.635 137.535 125.65 137.165C125.681 136.493 125.717 135.83 125.717 135.224H127.948Z" fill="#E8EAED"></path> <path d="M130.736 132.143H122.853C122.611 132.143 122.415 132.339 122.415 132.58V132.734C122.415 132.975 122.611 133.17 122.853 133.17H130.736C130.978 133.17 131.174 132.975 131.174 132.734V132.58C131.174 132.339 130.978 132.143 130.736 132.143Z" fill="#E8EAED"></path> <path d="M130.736 133.17H122.853C122.611 133.17 122.415 133.366 122.415 133.607V133.761C122.415 134.002 122.611 134.197 122.853 134.197H130.736C130.978 134.197 131.174 134.002 131.174 133.761V133.607C131.174 133.366 130.978 133.17 130.736 133.17Z" fill="#E8EAED"></path> <path d="M130.736 134.711H122.853C122.611 134.711 122.415 134.906 122.415 135.147V135.301C122.415 135.543 122.611 135.738 122.853 135.738H130.736C130.978 135.738 131.174 135.543 131.174 135.301V135.147C131.174 134.906 130.978 134.711 130.736 134.711Z" fill="#E8EAED"></path> <path d="M138.148 164.074C138.148 164.074 144.772 171.711 142.174 189.074" stroke="#202123" stroke-width="1.5" stroke-linecap="round" stroke-linejoin="round"></path> <path d="M142.315 177.037C143.593 177.037 144.63 176.001 144.63 174.722C144.63 173.444 143.593 172.407 142.315 172.407C141.036 172.407 140 173.444 140 174.722C140 176.001 141.036 177.037 142.315 177.037Z" fill="#202123" stroke="#202123" stroke-width="1.75" stroke-linecap="round" stroke-linejoin="round"></path> <path d="M196.019 64.0741C199.342 64.0741 202.037 61.3796 202.037 58.0556C202.037 54.7317 199.342 52.0371 196.019 52.0371C192.695 52.0371 190 54.7317 190 58.0556C190 61.3796 192.695 64.0741 196.019 64.0741Z" fill="#27B4B8"></path> <path d="M197.87 57.5926C198.637 57.5926 199.259 56.7635 199.259 55.7408C199.259 54.718 198.637 53.8889 197.87 53.8889C197.103 53.8889 196.481 54.718 196.481 55.7408C196.481 56.7635 197.103 57.5926 197.87 57.5926Z" fill="white"></path> <path d="M199.722 60.3704C199.978 60.3704 200.185 59.9559 200.185 59.4445C200.185 58.9331 199.978 58.5186 199.722 58.5186C199.467 58.5186 199.259 58.9331 199.259 59.4445C199.259 59.9559 199.467 60.3704 199.722 60.3704Z" fill="white"></path> <path d="M64.0741 77.0369C69.1878 77.0369 73.3333 73.0987 73.3333 68.2406C73.3333 63.3826 69.1878 59.4443 64.0741 59.4443C58.9603 59.4443 54.8148 63.3826 54.8148 68.2406C54.8148 73.0987 58.9603 77.0369 64.0741 77.0369Z" fill="#27B4B8"></path> <path d="M66.8519 66.8518C67.8746 66.8518 68.7037 65.8154 68.7037 64.537C68.7037 63.2585 67.8746 62.2222 66.8519 62.2222C65.8291 62.2222 65 63.2585 65 64.537C65 65.8154 65.8291 66.8518 66.8519 66.8518Z" fill="white"></path> <path d="M69.1667 71.4815C69.4224 71.4815 69.6297 71.0669 69.6297 70.5556C69.6297 70.0442 69.4224 69.6296 69.1667 69.6296C68.911 69.6296 68.7037 70.0442 68.7037 70.5556C68.7037 71.0669 68.911 71.4815 69.1667 71.4815Z" fill="white"></path> <path d="M230.741 160.37C235.854 160.37 240 156.225 240 151.111C240 145.997 235.854 141.852 230.741 141.852C225.627 141.852 221.481 145.997 221.481 151.111C221.481 156.225 225.627 160.37 230.741 160.37Z" fill="#27B4B8"></path> <path d="M232.593 149.259C233.615 149.259 234.444 148.43 234.444 147.408C234.444 146.385 233.615 145.556 232.593 145.556C231.57 145.556 230.741 146.385 230.741 147.408C230.741 148.43 231.57 149.259 232.593 149.259Z" fill="white"></path> <path d="M235.37 153.889C235.882 153.889 236.296 153.474 236.296 152.963C236.296 152.452 235.882 152.037 235.37 152.037C234.859 152.037 234.444 152.452 234.444 152.963C234.444 153.474 234.859 153.889 235.37 153.889Z" fill="white"></path> <path d="M69.6296 223.333C74.7434 223.333 78.8889 219.188 78.8889 214.074C78.8889 208.96 74.7434 204.815 69.6296 204.815C64.5159 204.815 60.3704 208.96 60.3704 214.074C60.3704 219.188 64.5159 223.333 69.6296 223.333Z" fill="#27B4B8"></path> <path d="M71.4815 212.222C72.5042 212.222 73.3333 211.393 73.3333 210.37C73.3333 209.348 72.5042 208.519 71.4815 208.519C70.4587 208.519 69.6296 209.348 69.6296 210.37C69.6296 211.393 70.4587 212.222 71.4815 212.222Z" fill="white"></path> <path d="M74.2592 216.852C74.7706 216.852 75.1852 216.437 75.1852 215.926C75.1852 215.415 74.7706 215 74.2592 215C73.7479 215 73.3333 215.415 73.3333 215.926C73.3333 216.437 73.7479 216.852 74.2592 216.852Z" fill="white"></path> <path d="M185.612 193.554C185.126 193.466 184.813 193.294 184.675 193.036C184.559 192.772 184.556 192.24 184.664 191.443C184.772 190.645 184.946 189.407 185.184 187.728C185.381 186.52 185.518 185.585 185.597 184.924C185.691 184.233 185.741 183.747 185.746 183.466C185.775 183.177 185.777 182.999 185.754 182.931C185.639 182.742 185.607 182.575 185.659 182.431C185.704 182.263 185.813 182.099 185.986 181.939C186.061 181.786 186.173 181.52 186.322 181.14C186.494 180.751 186.624 180.314 186.711 179.828C186.753 179.281 186.825 178.711 186.927 178.118C187.029 177.526 187.179 176.777 187.378 175.872C187.569 174.945 187.818 173.744 188.127 172.27C188.31 171.32 188.534 170.343 188.801 169.339C189.059 168.313 189.355 167.286 189.69 166.259C189.831 165.856 189.973 165.529 190.115 165.277C190.25 165.003 190.424 164.842 190.636 164.795C190.908 164.702 191.246 164.689 191.649 164.754C192.074 164.812 192.485 164.938 192.881 165.132C193.277 165.327 193.601 165.571 193.854 165.866C194.029 166.009 194.206 166.379 194.385 166.978C194.564 167.576 194.763 168.307 194.981 169.171C195.2 170.034 195.426 170.959 195.661 171.944C195.911 172.898 196.184 174.035 196.482 175.353C196.779 176.672 197.097 178.047 197.433 179.479C197.792 180.903 198.158 182.275 198.532 183.593C198.898 184.888 199.277 186.001 199.671 186.932C199.764 187.128 199.829 187.321 199.869 187.511C199.908 187.7 199.947 187.852 199.986 187.965C199.896 188.148 199.688 188.282 199.362 188.368C199.067 188.469 198.749 188.502 198.407 188.466C198.088 188.423 197.871 188.307 197.755 188.118C197.664 188.073 197.588 187.997 197.526 187.892C197.48 187.755 197.398 187.479 197.281 187.062C197.164 186.646 196.966 185.99 196.687 185.097L194.974 179.519L194.543 179.704C194.338 179.774 193.96 179.928 193.408 180.168C192.855 180.407 192.265 180.684 191.638 181C191.002 181.293 190.416 181.581 189.879 181.866C189.357 182.12 189.006 182.316 188.824 182.454C188.62 182.524 188.417 182.745 188.214 183.119C188.035 183.484 187.894 183.925 187.791 184.442C187.809 184.791 187.754 185.19 187.629 185.639C187.518 186.057 187.482 186.323 187.52 186.436C187.4 186.604 187.31 186.787 187.251 186.985C187.214 187.175 187.196 187.27 187.196 187.27C187.243 187.406 187.245 187.785 187.204 188.408C187.178 189 187.118 189.68 187.025 190.447C186.924 191.192 186.796 191.857 186.64 192.442L186.297 193.776L185.612 193.554ZM188.922 180.176C188.922 180.176 189.028 180.115 189.24 179.992C189.474 179.861 189.742 179.719 190.045 179.565C190.362 179.381 190.657 179.242 190.93 179.149C191.807 178.596 192.449 178.212 192.857 177.997C193.258 177.759 193.538 177.613 193.697 177.559C193.878 177.497 194.049 177.476 194.209 177.498C194.338 177.581 194.441 177.622 194.517 177.621C194.615 177.613 194.665 177.609 194.665 177.609C194.672 177.556 194.617 177.283 194.5 176.79C194.382 176.298 194.238 175.688 194.066 174.96C193.916 174.225 193.748 173.471 193.56 172.698C193.388 171.895 193.215 171.168 193.044 170.516C192.865 169.842 192.728 169.331 192.635 168.982C192.51 168.543 192.401 168.149 192.308 167.8C192.206 167.429 192.156 167.244 192.156 167.244C192.019 167.29 191.809 167.641 191.526 168.295C191.264 168.942 191.001 169.768 190.735 170.771C190.468 171.775 190.256 172.824 190.096 173.918C190.017 174.427 189.932 174.887 189.844 175.297C189.756 175.708 189.655 175.932 189.542 175.971C189.512 176.032 189.445 176.283 189.342 176.724C189.254 177.134 189.162 177.609 189.067 178.149C188.965 178.666 188.896 179.133 188.861 179.551C188.818 179.946 188.839 180.154 188.922 180.176ZM206.923 187.12C206.663 186.955 206.242 186.947 205.659 187.095C205.098 187.236 204.432 187.476 203.66 187.815C203.358 187.969 203.047 188.062 202.729 188.095C202.41 188.127 202.133 188.095 201.897 187.998C201.661 187.901 201.531 187.743 201.506 187.523C201.436 187.242 201.59 186.949 201.967 186.643C202.337 186.314 203.002 185.96 203.963 185.581L205.734 184.863L205.831 184.031C205.814 183.758 205.785 183.375 205.743 182.882C205.724 182.381 205.694 181.847 205.652 181.278C205.635 180.929 205.612 180.416 205.584 179.741C205.572 179.035 205.559 178.292 205.546 177.51C205.533 176.728 205.52 176.023 205.508 175.393C205.496 174.763 205.467 174.342 205.42 174.13C205.441 173.894 205.438 173.477 205.411 172.878C205.384 172.278 205.353 171.667 205.318 171.045C205.276 170.4 205.239 169.957 205.207 169.714C205.109 167.719 205.008 166.308 204.904 165.481C204.799 164.655 204.702 164.257 204.611 164.288C204.52 164.319 204.297 164.408 203.941 164.554C203.608 164.693 203.237 164.871 202.829 165.086C202.436 165.271 202.08 165.455 201.763 165.64C201.46 165.794 201.294 165.901 201.264 165.962C201.205 166.16 201.027 166.271 200.731 166.296C200.428 166.298 200.192 166.201 200.023 166.005C199.931 165.808 199.865 165.653 199.827 165.54C199.811 165.418 199.836 165.308 199.904 165.209C200.017 165.018 200.258 164.759 200.627 164.43C201.019 164.093 201.472 163.748 201.986 163.396C202.522 163.035 203.036 162.72 203.528 162.451C203.898 162.274 204.254 162.051 204.593 161.783C204.925 161.493 205.162 161.222 205.305 160.97C205.478 160.81 205.648 160.676 205.814 160.568C206.003 160.453 206.204 160.372 206.416 160.325C206.629 160.354 206.951 160.294 207.382 160.147C207.829 159.97 208.294 159.773 208.778 159.557C209.996 158.964 210.84 158.613 211.31 158.503C211.772 158.371 212.137 158.437 212.404 158.7C212.657 159.07 212.792 159.392 212.809 159.665C212.849 159.931 212.672 160.118 212.278 160.227C212.097 160.365 211.742 160.549 211.212 160.781C210.705 161.004 210.164 161.24 209.589 161.487C208.848 161.841 208.269 162.152 207.854 162.421C207.453 162.659 207.246 162.831 207.231 162.938C207.171 163.059 207.123 163.177 207.086 163.291C207.071 163.398 207.038 163.523 206.986 163.668C207.062 163.743 207.129 164.05 207.186 164.589C207.235 165.104 207.269 165.651 207.288 166.227C207.298 166.554 207.313 167.043 207.333 167.696C207.345 168.325 207.357 168.993 207.37 169.699C207.405 170.397 207.432 171.034 207.451 171.611C207.463 172.165 207.462 172.533 207.448 172.715C207.449 172.943 207.459 173.193 207.476 173.466C207.508 173.709 207.543 173.887 207.582 174.001C207.722 175.601 207.812 176.978 207.85 178.131C207.881 179.262 207.899 180.283 207.906 181.193C207.935 182.096 207.99 183.003 208.073 183.913C208.073 183.913 208.239 183.844 208.572 183.705C208.92 183.535 209.374 183.304 209.934 183.012C210.69 182.627 211.287 182.335 211.726 182.134C212.165 181.934 212.502 181.806 212.737 181.752C212.964 181.674 213.127 181.669 213.226 181.737C213.34 181.774 213.458 181.86 213.581 181.996C214.259 182.424 214.467 182.81 214.204 183.153C213.963 183.489 213.215 183.896 211.958 184.375C210.808 184.869 209.923 185.247 209.302 185.51C208.712 185.787 208.304 186.003 208.077 186.156C207.873 186.302 207.787 186.458 207.819 186.624C207.857 186.738 207.839 186.833 207.764 186.909C207.719 187.001 207.613 187.062 207.446 187.094C207.302 187.118 207.128 187.126 206.923 187.12Z" fill="#202123"></path> </svg> 