<?xml version="1.0" encoding="UTF-8"?> <svg xmlns="http://www.w3.org/2000/svg" width="280" height="280" viewBox="0 0 280 280" fill="none"> <path d="M140 280C217.32 280 280 217.32 280 140C280 62.6801 217.32 0 140 0C62.6801 0 0 62.6801 0 140C0 217.32 62.6801 280 140 280Z" fill="white"></path> <path d="M138.366 154.82V106.882H148.083V92.2344" stroke="#202123" stroke-width="1.5" stroke-linecap="round" stroke-linejoin="round"></path> <path d="M224.12 165.428C224.106 163.651 223.668 161.904 222.842 160.333C222.017 158.762 220.828 157.413 219.376 156.4C220.225 154.826 220.67 153.064 220.67 151.273C220.67 146.022 216.889 141.601 211.762 140.31C211.995 139.424 212.113 138.513 212.115 137.598C212.115 131.33 206.74 126.248 200.115 126.248C198.743 126.247 197.379 126.47 196.078 126.909C194.51 122.368 189.997 119.084 184.666 119.084C183.541 119.083 182.421 119.232 181.336 119.528C179.519 120.024 177.841 120.935 176.433 122.191C175.991 116.323 170.793 111.689 164.468 111.689C162.175 111.657 159.92 112.283 157.969 113.495C156.017 114.707 154.451 116.453 153.453 118.529C152.344 116.779 150.81 115.342 148.994 114.354C147.179 113.366 145.143 112.86 143.079 112.883C137.399 112.883 132.642 116.62 131.401 121.632C129.642 120.748 127.701 120.292 125.735 120.3C119.11 120.3 113.739 125.378 113.739 131.65C113.739 132.264 113.791 132.877 113.894 133.483C112.509 132.978 111.047 132.721 109.574 132.724C102.949 132.724 97.5742 137.802 97.5742 144.065C97.5749 145.25 97.7704 146.428 98.1528 147.549C97.9629 147.549 97.7685 147.549 97.5742 147.549C90.9492 147.549 85.5786 152.627 85.5786 158.899C85.5822 161.401 86.4467 163.826 88.0254 165.761C81.9747 166.347 77.2577 171.181 77.2577 177.049C77.2603 179.511 78.0967 181.9 79.6294 183.822C78.0982 185.745 77.262 188.133 77.2577 190.595C77.2577 195.784 80.9412 200.156 85.9673 201.506C85.7059 202.443 85.5736 203.413 85.5742 204.386C85.5742 210.649 90.9448 215.727 97.5698 215.727C99.1905 215.733 100.797 215.422 102.3 214.813C102.989 214.536 103.652 214.196 104.279 213.796C104.91 221.107 111.385 226.859 119.295 226.859C121.773 226.884 124.219 226.303 126.424 225.168C128.629 224.032 130.526 222.375 131.953 220.339C132.664 220.379 133.38 220.406 134.1 220.406C134.316 220.406 134.541 220.406 134.749 220.406C136.295 226.722 142.257 231.422 149.417 231.422C156.426 231.422 162.309 226.899 163.991 220.77C166.57 222.458 169.588 223.345 172.666 223.317C180.382 223.317 186.733 217.84 187.62 210.778C188.899 211.101 190.211 211.265 191.529 211.266C199.846 211.266 206.59 204.892 206.59 197.027C206.592 195.582 206.361 194.146 205.905 192.775C213.356 191.914 219.124 185.917 219.124 178.646C219.124 177.398 218.952 176.155 218.612 174.954C220.27 173.978 221.648 172.588 222.613 170.919C223.578 169.25 224.097 167.358 224.12 165.428Z" fill="white" stroke="#202123" stroke-width="1.75" stroke-linecap="round" stroke-linejoin="round"></path> <path d="M218.612 174.962C218.952 176.163 219.124 177.406 219.124 178.655C219.124 185.926 213.356 191.922 205.905 192.784C206.361 194.154 206.592 195.59 206.59 197.036C206.59 204.901 199.85 211.275 191.529 211.275C190.211 211.274 188.898 211.11 187.62 210.787C186.737 217.844 180.382 223.326 172.666 223.326C169.578 223.337 166.557 222.429 163.983 220.716C162.3 226.842 156.413 231.369 149.408 231.369C142.262 231.369 136.286 226.664 134.74 220.352C134.524 220.352 134.298 220.352 134.091 220.352C133.371 220.352 132.655 220.326 131.944 220.286C130.52 222.325 128.624 223.987 126.419 225.126C124.214 226.266 121.766 226.85 119.286 226.828C111.385 226.828 104.91 221.058 104.27 213.765C103.651 214.16 103.214 210.689 104.27 213.765C103.214 204.573 103.214 202.46 112.9 198.279C112.9 198.279 106.695 188.7 115.603 182.805C115.603 182.805 103.236 170.453 128.336 154.398C128.336 154.398 133.243 130.14 153.687 138.494C153.687 138.494 155.454 120.677 172.18 125.884L176.42 122.204C177.944 121.05 183.486 119.097 184.652 119.097C189.983 119.097 194.497 122.377 196.065 126.922C197.366 126.484 198.729 126.26 200.102 126.261C206.727 126.261 212.102 131.339 212.102 137.611C212.1 138.526 211.981 139.438 211.748 140.323C216.876 141.614 220.657 146.035 220.657 151.286C220.657 153.077 220.212 154.839 219.363 156.413C220.887 157.463 222.122 158.885 222.949 160.545C223.777 162.206 224.171 164.051 224.095 165.907C224.019 167.763 223.474 169.569 222.513 171.155C221.551 172.741 220.204 174.056 218.599 174.976L218.612 174.962Z" fill="#E8EAED"></path> <path d="M104.27 213.761C99.4116 201.142 112.904 198.279 112.904 198.279C112.904 198.279 106.96 188.643 115.607 182.802" stroke="#202123" stroke-width="1.75" stroke-linecap="round" stroke-linejoin="round"></path> <path d="M95.4896 199.908C95.4896 199.908 99.4071 189.318 89.2754 187.964C79.1436 186.61 79.6295 183.787 79.6295 183.787" stroke="#202123" stroke-width="1.75" stroke-linecap="round" stroke-linejoin="round"></path> <path d="M88.021 165.726C88.021 165.726 96.0283 177.644 112.661 173.574" stroke="#202123" stroke-width="1.75" stroke-linecap="round" stroke-linejoin="round"></path> <path d="M153.701 174.35C150.69 177.955 146.97 180.894 142.774 182.983C130.765 189.1 117.798 187.653 113.814 179.752C109.83 171.851 116.336 160.488 128.345 154.372C131.177 152.918 134.189 151.85 137.302 151.198" stroke="#202123" stroke-width="1.5" stroke-linecap="round" stroke-linejoin="round"></path> <path d="M129.445 170.759C129.445 170.759 145.821 150.785 159.076 159.525C172.33 168.264 163.236 179.499 163.236 179.499" stroke="#202123" stroke-width="1.5" stroke-linecap="round" stroke-linejoin="round"></path> <path d="M142.774 182.988C142.774 182.988 147.588 186.65 146.572 191.865" stroke="#202123" stroke-width="1.5" stroke-linecap="round" stroke-linejoin="round"></path> <path d="M121.19 212.349C121.19 212.349 121.596 193.587 138.247 199.921C154.898 206.255 157.539 189.099 157.539 189.099" stroke="#202123" stroke-width="1.5" stroke-linecap="round" stroke-linejoin="round"></path> <path d="M146.714 219.088C146.714 219.088 150.026 204.6 162.41 209.904" stroke="#202123" stroke-width="1.5" stroke-linecap="round" stroke-linejoin="round"></path> <path d="M172.365 206.229C172.365 206.229 162.415 188.896 189.829 183.787C217.243 178.678 204.845 165.726 204.845 165.726" stroke="#202123" stroke-width="1.5" stroke-linecap="round" stroke-linejoin="round"></path> <path d="M193.486 196.025C193.486 196.025 184.145 191.954 189.829 183.787" stroke="#202123" stroke-width="1.5" stroke-linecap="round" stroke-linejoin="round"></path> <path d="M184.953 168.988C184.953 168.988 195.513 165.206 197.545 159.902C199.576 154.598 219.778 154.132 218.612 174.967" stroke="#202123" stroke-width="1.5" stroke-linecap="round" stroke-linejoin="round"></path> <path d="M156.523 146.431C156.523 146.431 176.018 140.851 176.839 165.885" stroke="#202123" stroke-width="1.5" stroke-linecap="round" stroke-linejoin="round"></path> <path d="M193.486 133.168C193.486 133.168 188.186 132.555 187.996 144.393C187.806 156.231 176.835 158.477 176.835 158.477" stroke="#202123" stroke-width="1.5" stroke-linecap="round" stroke-linejoin="round"></path> <path d="M170.603 139.697C170.603 139.697 166.898 127.123 176.433 122.187" stroke="#202123" stroke-width="1.5" stroke-linecap="round" stroke-linejoin="round"></path> <path d="M128.349 154.376C128.349 154.376 133.208 130.513 153.701 138.472C153.701 138.472 156.66 121.125 170.603 125.409" stroke="#202123" stroke-width="1.5" stroke-linecap="round" stroke-linejoin="round"></path> <path d="M153.701 138.472C157.375 124.388 142.774 127.246 142.774 127.246" stroke="#202123" stroke-width="1.5" stroke-linecap="round" stroke-linejoin="round"></path> <path d="M125.66 133.163C125.66 133.163 134.25 138.88 131.3 146.63" stroke="#202123" stroke-width="1.5" stroke-linecap="round" stroke-linejoin="round"></path> <path d="M98.2058 161.944C98.2058 161.944 114.596 155.823 108.298 140.718" stroke="#202123" stroke-width="1.5" stroke-linecap="round" stroke-linejoin="round"></path> <path d="M119.728 170.054C119.728 170.054 116.985 173.862 119.728 176.996" stroke="white" stroke-width="6" stroke-linecap="round" stroke-linejoin="round"></path> <path d="M124.825 179.512C125.27 179.785 125.771 179.953 126.29 180C126.809 180.048 127.333 179.975 127.819 179.787" stroke="white" stroke-width="6" stroke-linecap="round" stroke-linejoin="round"></path> <path d="M183.584 122.706C183.584 122.706 177.621 124.925 176.835 130.94" stroke="white" stroke-width="6" stroke-linecap="round" stroke-linejoin="round"></path> <path d="M175.908 136.621V138.396" stroke="white" stroke-width="6" stroke-linecap="round" stroke-linejoin="round"></path> <path d="M200.451 170.706C200.451 170.706 201.334 174.976 191.701 177.017" stroke="white" stroke-width="6" stroke-linecap="round" stroke-linejoin="round"></path> <path d="M185.686 178.837L183.279 179.756" stroke="white" stroke-width="6" stroke-linecap="round" stroke-linejoin="round"></path> <path d="M126.322 211.852C126.322 211.852 127.139 204.404 131.622 204.524" stroke="white" stroke-width="6" stroke-linecap="round" stroke-linejoin="round"></path> <path d="M136.078 204.644L138.194 205.234" stroke="white" stroke-width="6" stroke-linecap="round" stroke-linejoin="round"></path> <path d="M177.926 195.163C177.926 195.163 175.064 198.221 177.926 203.597" stroke="white" stroke-width="6" stroke-linecap="round" stroke-linejoin="round"></path> <path d="M178.999 208.19L180.072 210.627" stroke="white" stroke-width="6" stroke-linecap="round" stroke-linejoin="round"></path> <path d="M165.219 153.63C165.219 153.63 170.078 154.842 170.59 161.296" stroke="white" stroke-width="6" stroke-linecap="round" stroke-linejoin="round"></path> <path d="M158.241 151.712H160.008" stroke="white" stroke-width="6" stroke-linecap="round" stroke-linejoin="round"></path> <path d="M202.99 134.988C202.99 134.988 206.365 135.254 206.365 140.709" stroke="white" stroke-width="6" stroke-linecap="round" stroke-linejoin="round"></path> <path d="M224.12 165.428C224.106 163.651 223.668 161.904 222.842 160.333C222.017 158.762 220.828 157.413 219.376 156.4C220.225 154.826 220.67 153.064 220.67 151.273C220.67 146.022 216.889 141.601 211.762 140.31C211.995 139.424 212.113 138.513 212.115 137.598C212.115 131.33 206.74 126.248 200.115 126.248C198.743 126.247 197.379 126.47 196.078 126.909C194.51 122.368 189.997 119.084 184.666 119.084C183.541 119.083 182.421 119.232 181.336 119.528C179.519 120.024 177.841 120.935 176.433 122.191C175.991 116.323 170.793 111.689 164.468 111.689C162.175 111.657 159.92 112.283 157.969 113.495C156.017 114.707 154.451 116.453 153.453 118.529C152.344 116.779 150.81 115.342 148.994 114.354C147.179 113.366 145.143 112.86 143.079 112.883C137.399 112.883 132.642 116.62 131.401 121.632C129.642 120.748 127.701 120.292 125.735 120.3C119.11 120.3 113.739 125.378 113.739 131.65C113.739 132.264 113.791 132.877 113.894 133.483C112.509 132.978 111.047 132.721 109.574 132.724C102.949 132.724 97.5742 137.802 97.5742 144.065C97.5749 145.25 97.7704 146.428 98.1528 147.549C97.9629 147.549 97.7685 147.549 97.5742 147.549C90.9492 147.549 85.5786 152.627 85.5786 158.899C85.5822 161.401 86.4467 163.826 88.0254 165.761C81.9747 166.347 77.2577 171.181 77.2577 177.049C77.2603 179.511 78.0967 181.9 79.6294 183.822C78.0982 185.745 77.262 188.133 77.2577 190.595C77.2577 195.784 80.9412 200.156 85.9673 201.506C85.7059 202.443 85.5736 203.413 85.5742 204.386C85.5742 210.649 90.9448 215.727 97.5698 215.727C99.1905 215.733 100.797 215.422 102.3 214.813C102.989 214.536 103.652 214.196 104.279 213.796C104.91 221.107 111.385 226.859 119.295 226.859C121.773 226.884 124.219 226.303 126.424 225.168C128.629 224.032 130.526 222.375 131.953 220.339C132.664 220.379 133.38 220.406 134.1 220.406C134.316 220.406 134.541 220.406 134.749 220.406C136.295 226.722 142.257 231.422 149.417 231.422C156.426 231.422 162.309 226.899 163.991 220.77C166.57 222.458 169.588 223.345 172.666 223.317C180.382 223.317 186.733 217.84 187.62 210.778C188.899 211.101 190.211 211.265 191.529 211.266C199.846 211.266 206.59 204.892 206.59 197.027C206.592 195.582 206.361 194.146 205.905 192.775C213.356 191.914 219.124 185.917 219.124 178.646C219.124 177.398 218.952 176.155 218.612 174.954C220.27 173.978 221.648 172.588 222.613 170.919C223.578 169.25 224.097 167.358 224.12 165.428V165.428Z" stroke="#202123" stroke-width="1.5" stroke-linecap="round" stroke-linejoin="round"></path> <path d="M118.933 148.606V113.54H111.866V87.352H118.491V66.9341" stroke="#202123" stroke-width="1.5" stroke-linecap="round" stroke-linejoin="round"></path> <path d="M97.7332 73.1479V87.3517H111.866" stroke="#202123" stroke-width="1.5" stroke-linecap="round" stroke-linejoin="round"></path> <path d="M76.975 177.014V136.622H69.4667V105.551" stroke="#202123" stroke-width="1.5" stroke-linecap="round" stroke-linejoin="round"></path> <path d="M119.154 151.713C121.959 151.713 124.233 149.427 124.233 146.608C124.233 143.789 121.959 141.504 119.154 141.504C116.349 141.504 114.075 143.789 114.075 146.608C114.075 149.427 116.349 151.713 119.154 151.713Z" fill="#27B4B8" stroke="#202123" stroke-width="1.5" stroke-linecap="round" stroke-linejoin="round"></path> <path d="M77.1959 184.116C80.001 184.116 82.275 181.83 82.275 179.011C82.275 176.192 80.001 173.907 77.1959 173.907C74.3908 173.907 72.1168 176.192 72.1168 179.011C72.1168 181.83 74.3908 184.116 77.1959 184.116Z" fill="#27B4B8" stroke="#202123" stroke-width="1.5" stroke-linecap="round" stroke-linejoin="round"></path> <path d="M96.4082 94.4541H50.4753V116.204H96.4082V94.4541Z" fill="#27B4B8" stroke="#202123" stroke-width="1.5" stroke-linecap="round" stroke-linejoin="round"></path> <path d="M201.524 81.5818H137.925V99.7804H201.524V81.5818Z" fill="#27B4B8" stroke="#202123" stroke-width="1.5" stroke-linecap="round" stroke-linejoin="round"></path> <path d="M171.491 51.3987H82.7167V73.1482H171.491V51.3987Z" fill="#27B4B8" stroke="#202123" stroke-width="1.5" stroke-linecap="round" stroke-linejoin="round"></path> </svg> 