<?xml version="1.0" encoding="UTF-8"?> <svg xmlns="http://www.w3.org/2000/svg" width="1600" height="327" viewBox="0 0 1600 327" fill="none"> <path fill-rule="evenodd" clip-rule="evenodd" d="M770.241 190.376L769.627 282.906L841.856 274.133L843.606 40.6898L771.116 58.5649L770.323 177.958H695.454L695.454 169.922H624.764V190.376H695.454H770.241ZM79.125 181.122H31.8005V190.376H79.125H79.1255H166.219V174.305H79.125V181.122ZM302.629 190.376H327.485H332.455H359.5V124.391C359.5 124.391 361.689 106.455 327.485 94.443V119.219C323.148 116.341 316.366 114.489 308.744 114.489C295.648 114.489 285.031 119.958 285.031 126.704C285.031 129.178 286.46 131.481 288.916 133.405L279.662 139.488V155.801H257.889V141.191L246.405 131.816L233.431 142.408V156.449H192.865V165.783L166.219 165.783V190.376H192.865H204.399H279.662H294.128H299.943H302.629ZM496.905 155.801H473.127V140.065C473.127 140.059 473.126 140.053 473.126 140.046C473.113 133.066 465.993 128.351 450.572 133.725C435.095 139.115 416.163 144.577 416.163 144.577C415.854 144.463 415.543 144.35 415.227 144.237C398.225 138.149 388.234 150.323 388.234 150.323V190.376H430.679H448.708H496.905H506.845H551.984H551.984H624.762V157.262H586.283L589.269 169.436H551.984V142.41H496.905V155.801ZM307.575 84.8652V114.489H309.911V84.8652H307.575ZM381.956 124.994L359.5 138.919V190.376H388.234V127.536C388.234 124.897 384.533 123.398 381.956 124.994ZM31.798 91.5211H-90.4922V190.376H31.798V91.5211Z" fill="#F2F4F6"></path> <path fill-rule="evenodd" clip-rule="evenodd" d="M1786.73 190.376L1786.12 282.906L1858.35 274.133L1860.1 40.6898L1787.61 58.5649L1786.82 177.958H1711.95L1711.95 169.922H1641.26V190.376H1711.95H1786.73ZM1095.62 181.122H1048.29V190.376H1095.62H1095.62H1182.71V174.305H1095.62V181.122ZM1319.12 190.376H1343.98H1348.95H1375.99V124.391C1375.99 124.391 1378.18 106.455 1343.98 94.443V119.219C1339.64 116.341 1332.86 114.489 1325.24 114.489C1312.14 114.489 1301.52 119.958 1301.52 126.704C1301.52 129.178 1302.95 131.481 1305.41 133.405L1296.15 139.488V155.801H1274.38V141.191L1262.9 131.816L1249.92 142.408V156.449H1209.36V165.783L1182.71 165.783V190.376H1209.36H1220.89H1296.15H1310.62H1316.44H1319.12ZM1513.4 155.801H1489.62V140.065C1489.62 140.059 1489.62 140.053 1489.62 140.046C1489.61 133.066 1482.49 128.351 1467.06 133.725C1451.59 139.115 1432.65 144.577 1432.65 144.577C1432.35 144.463 1432.03 144.35 1431.72 144.237C1414.72 138.149 1404.73 150.323 1404.73 150.323V190.376H1447.17H1465.2H1513.4H1523.34H1568.48H1568.48H1641.25V157.262H1602.78L1605.76 169.436H1568.48V142.41H1513.4V155.801ZM1324.07 84.8652V114.489H1326.4V84.8652H1324.07ZM1398.45 124.994L1375.99 138.919V190.376H1404.73V127.536C1404.73 124.897 1401.02 123.398 1398.45 124.994ZM1048.29 91.5211H926V190.376H1048.29V91.5211Z" fill="#F2F4F6"></path> <path d="M631.749 161.316H587.828V70.7169H586.58V68.127H589.305V64.8127H592.44V63.5668V59.7763V56.4877H596.225V50.6119H596.679H597.134V56.4877H599.174L600.407 59.7763H608.663V64.8127H630.273V68.127H632.997V70.7169H631.749V161.316Z" fill="#F2F4F6"></path> <path d="M1100.87 180.282H526.446V166.621H667.178V66.4447H666.449V65.2867H671.642V58.326H670.971V57.2113H675.738V53.2098H674.994V52.3542H677.362V48.5739H679.627V41.0511H679.899H680.169H680.381V48.5739H681.297V35.0792H681.569H681.839H682.051V48.5739H682.355H684.315V52.3542H686.367V53.2098H685.94V57.2113H690.707V58.326H690.035V65.2867H695.228V66.4447H694.5V166.621H736.697V91.3662H740.851V46.333H745.697V16.5793H755.08V0.303375H756.4V16.5793H759.307V3.57712H760.628V16.5793H775.469V34.271H778.162V46.333H785.702V91.3662H788.624V166.621H947.302L941.377 33.5932L995.454 44.8179V166.621H1100.87V180.282Z" fill="#F2F4F6"></path> <path d="M919.262 134.437C920.406 135.068 921.583 135.635 922.786 136.135L921.555 139.134C921.275 139.046 920.977 138.998 920.669 138.998C919.053 138.998 917.744 140.306 917.744 141.922C917.744 143.537 919.053 144.846 920.669 144.846C922.284 144.846 923.593 143.537 923.593 141.922C923.593 140.73 922.881 139.706 921.858 139.25L923.086 136.258C926.932 137.817 931.051 138.703 935.3 138.857L935.2 141.924C933.617 141.959 932.343 143.254 932.343 144.846C932.343 146.462 933.652 147.772 935.268 147.772C936.883 147.772 938.192 146.462 938.192 144.846C938.192 143.318 937.02 142.064 935.525 141.934L935.624 138.867C935.96 138.876 936.296 138.881 936.633 138.881C940.724 138.881 944.71 138.203 948.465 136.902L949.515 139.884C948.52 140.351 947.831 141.361 947.831 142.533C947.831 144.148 949.141 145.458 950.755 145.458C952.37 145.458 953.681 144.148 953.681 142.533C953.681 140.918 952.37 139.608 950.755 139.608C950.427 139.608 950.112 139.663 949.818 139.763L948.771 136.795C950.575 136.152 952.324 135.363 954.004 134.437L967.766 159.801H905.501L919.262 134.437ZM911.84 127.637C911.609 127.406 911.383 127.172 911.159 126.936L918.535 120.026C920.137 121.712 921.972 123.175 923.987 124.364L919.161 133.26C916.517 131.735 914.056 129.853 911.84 127.637ZM910.937 126.699C907.771 123.297 905.355 119.368 903.77 115.117L913.261 111.623C914.41 114.672 916.139 117.438 918.314 119.788L910.937 126.699ZM901.571 102.845C901.571 102.518 901.576 102.193 901.585 101.867L911.674 102.196C911.669 102.411 911.665 102.627 911.665 102.845C911.665 105.818 912.19 108.671 913.147 111.318L903.658 114.812C902.286 111.026 901.571 106.99 901.571 102.845ZM904.715 88.2887L913.898 92.5283C912.593 95.3955 911.814 98.5515 911.687 101.871L901.595 101.543C901.763 96.8998 902.831 92.4146 904.715 88.2887ZM911.84 78.0516C912.071 77.8209 912.305 77.5943 912.541 77.3711L919.452 84.7458C917.213 86.8723 915.368 89.4094 914.036 92.234L904.851 87.9938C906.559 84.346 908.907 80.9844 911.84 78.0516ZM924.818 69.8131L928.18 79.3516C925.002 80.4987 922.122 82.2729 919.689 84.5246L912.777 77.1479C916.303 73.8694 920.391 71.3932 924.818 69.8131ZM936.633 67.7826C936.959 67.7826 937.284 67.7874 937.61 67.7961L937.282 77.8858C937.066 77.8804 936.85 77.8777 936.633 77.8777C933.782 77.8777 931.041 78.3593 928.487 79.2433L925.126 69.7056C928.777 68.4408 932.654 67.7826 936.633 67.7826ZM937.934 67.8056C942.065 67.9557 946.071 68.8175 949.809 70.3319L945.966 79.6884C943.367 78.6373 940.551 78.0117 937.606 77.898L937.934 67.8056ZM961.425 78.0516C961.657 78.2822 961.883 78.5162 962.106 78.7523L954.731 85.6629C952.362 83.1691 949.485 81.1629 946.267 79.8115L950.109 70.455C954.289 72.1947 958.128 74.7542 961.425 78.0516ZM962.33 78.989C965.494 82.3919 967.911 86.3204 969.496 90.5715L960.005 94.0657C958.856 91.0166 957.127 88.2501 954.953 85.9003L962.33 78.989ZM971.694 102.845C971.694 103.171 971.69 103.496 971.681 103.821L961.592 103.493C961.597 103.277 961.6 103.061 961.6 102.845C961.6 99.8705 961.076 97.0175 960.118 94.3701L969.608 90.8765C970.979 94.6623 971.694 98.6983 971.694 102.845ZM968.551 117.4L959.368 113.16C960.674 110.293 961.451 107.138 961.579 103.818L971.671 104.146C971.503 108.789 970.435 113.274 968.551 117.4ZM961.425 127.637C961.195 127.868 960.961 128.094 960.725 128.317L953.814 120.943C956.053 118.816 957.898 116.279 959.23 113.454L968.414 117.695C966.707 121.342 964.359 124.704 961.425 127.637ZM945.086 126.337C946.345 125.882 947.557 125.329 948.715 124.686L953.539 133.58C951.904 134.481 950.203 135.249 948.447 135.875L945.086 126.337ZM935.984 127.803C936.2 127.808 936.416 127.811 936.633 127.811C939.484 127.811 942.225 127.329 944.779 126.445L948.14 135.983C944.489 137.248 940.611 137.907 936.633 137.907C936.306 137.907 935.982 137.901 935.656 137.892L935.984 127.803ZM927.299 126C929.899 127.051 932.715 127.677 935.66 127.79L935.332 137.882C931.201 137.733 927.195 136.87 923.457 135.356L927.299 126ZM924.551 124.686C925.342 125.126 926.158 125.524 926.998 125.876L923.157 135.233C921.985 134.746 920.841 134.194 919.727 133.58L924.551 124.686ZM934.413 105.147L924.22 123.935C922.251 122.772 920.457 121.341 918.891 119.692L934.413 105.147ZM934.85 103.674C934.903 103.787 934.966 103.894 935.039 103.994L934.905 104.241L918.669 119.455C916.539 117.152 914.844 114.442 913.718 111.454L934.85 103.674ZM934.669 102.943C934.676 103.09 934.7 103.232 934.738 103.369L913.605 111.15C912.666 108.555 912.153 105.758 912.153 102.845C912.153 102.633 912.156 102.422 912.161 102.211L934.669 102.943ZM934.785 102.17C934.733 102.313 934.698 102.462 934.68 102.618L912.173 101.887C912.3 98.634 913.061 95.5416 914.341 92.7326L934.785 102.17ZM935.175 101.526C935.078 101.632 934.993 101.749 934.922 101.876L914.479 92.4383C915.783 89.6712 917.591 87.1855 919.785 85.1015L935.175 101.526ZM935.829 101.05C935.679 101.117 935.539 101.203 935.412 101.304L920.022 84.8804C922.406 82.674 925.228 80.9357 928.342 79.8108L935.829 101.05ZM936.534 100.88C936.397 100.887 936.264 100.908 936.134 100.942L928.649 79.7026C931.152 78.8368 933.839 78.3647 936.633 78.3647C936.845 78.3647 937.056 78.3674 937.266 78.3728L936.534 100.88ZM937.227 100.97C937.109 100.932 936.985 100.906 936.86 100.891L937.591 78.3857C940.475 78.4966 943.234 79.1094 945.781 80.1395L937.227 100.97ZM937.952 101.386C937.824 101.271 937.681 101.173 937.528 101.093L946.082 80.2627C949.235 81.587 952.054 83.5526 954.376 85.9964L937.952 101.386ZM938.416 102.015C938.35 101.875 938.268 101.743 938.174 101.623L954.597 86.2338C956.728 88.5362 958.421 91.2465 959.548 94.2341L938.416 102.015ZM938.596 102.746C938.589 102.598 938.565 102.456 938.527 102.32L959.661 94.5385C960.599 97.1331 961.112 99.93 961.112 102.845C961.112 103.056 961.109 103.267 961.104 103.477L938.596 102.746ZM938.481 103.518C938.532 103.376 938.568 103.226 938.586 103.07L961.092 103.802C960.966 107.054 960.204 110.147 958.925 112.956L938.481 103.518ZM938.632 104.74L938.227 103.994C938.269 103.936 938.308 103.875 938.344 103.813L958.787 113.25C957.482 116.017 955.675 118.503 953.481 120.587L938.632 104.74ZM939.244 105.868L953.243 120.808C951.963 121.993 950.556 123.043 949.046 123.935L939.244 105.868ZM937.438 104.638C937.545 104.59 937.648 104.532 937.744 104.467L948.482 124.258C947.348 124.889 946.159 125.431 944.923 125.878L937.438 104.638ZM936.732 104.808C936.869 104.801 937.002 104.78 937.131 104.747L944.617 125.986C942.114 126.852 939.427 127.324 936.633 127.324C936.421 127.324 936.211 127.321 936.001 127.316L936.732 104.808ZM927.184 125.426C926.36 125.079 925.559 124.689 924.784 124.258L935.522 104.467C935.591 104.514 935.663 104.556 935.738 104.595L927.184 125.426ZM936.039 104.719C936.157 104.756 936.28 104.782 936.407 104.797L935.676 127.303C932.79 127.192 930.032 126.579 927.484 125.549L936.039 104.719ZM954.105 133.26L949.279 124.364C950.826 123.451 952.266 122.377 953.576 121.164L960.488 128.54C958.523 130.369 956.381 131.947 954.105 133.26ZM1090.55 178.919V166.621H1073.26L1066.71 118.21H1065.73V112.394H1062.29V118.21H1061.44V116.035H1059.04V118.21H1054.05V113.141H1052.68V109.617H1042.88V113.141H1041.51V118.21H1040.13V147.285H1031.42V73.5123H1028.56V57.3338H1027.64V73.5123H1025.47V51.069H1024.55V73.5123H1022.66V61.3643H1021.74V73.5123H1004.84V125.878H986.053V159.801H968.505L954.57 134.117C956.919 132.765 959.128 131.137 961.155 129.251L964.012 132.301C963.399 132.837 963.011 133.625 963.011 134.504C963.011 136.119 964.32 137.428 965.935 137.428C967.551 137.428 968.86 136.119 968.86 134.504C968.86 132.889 967.551 131.579 965.935 131.579C965.317 131.579 964.742 131.772 964.27 132.1L961.391 129.029C961.635 128.798 961.876 128.564 962.115 128.326C965.13 125.311 967.545 121.854 969.3 118.103L972.482 119.572C972.425 119.802 972.394 120.042 972.394 120.289C972.394 121.904 973.703 123.213 975.318 123.213C976.934 123.213 978.243 121.904 978.243 120.289C978.243 118.673 976.934 117.364 975.318 117.364C974.065 117.364 972.996 118.153 972.58 119.26L969.437 117.808C971.375 113.565 972.473 108.953 972.646 104.177L976.071 104.289C976.114 105.867 977.406 107.134 978.994 107.134C980.609 107.134 981.919 105.825 981.919 104.21C981.919 102.594 980.609 101.285 978.994 101.285C977.462 101.285 976.205 102.464 976.081 103.964L972.655 103.852C972.664 103.517 972.67 103.181 972.67 102.845C972.67 98.5813 971.934 94.4316 970.523 90.5397L973.385 89.4859C973.835 90.5228 974.867 91.2492 976.069 91.2492C977.684 91.2492 978.994 89.9398 978.994 88.3245C978.994 86.7093 977.684 85.3998 976.069 85.3998C974.455 85.3998 973.144 86.7093 973.144 88.3245C973.144 88.6221 973.189 88.9103 973.272 89.1815L970.412 90.2346C968.782 85.8618 966.296 81.8224 963.04 78.3221L965.279 76.224C965.804 76.7252 966.515 77.0343 967.298 77.0343C968.914 77.0343 970.224 75.7248 970.224 74.1095C970.224 72.4943 968.914 71.1849 967.298 71.1849C965.683 71.1849 964.374 72.4943 964.374 74.1095C964.374 74.8245 964.631 75.4792 965.057 75.9872L962.817 78.0854C962.587 77.8419 962.353 77.6004 962.115 77.3623C958.725 73.9722 954.778 71.3411 950.48 69.5527L951.712 66.5543C951.992 66.6429 952.289 66.6916 952.597 66.6916C954.213 66.6916 955.522 65.3814 955.522 63.7662C955.522 62.1517 954.213 60.8422 952.597 60.8422C950.982 60.8422 949.672 62.1517 949.672 63.7662C949.672 64.958 950.386 65.9827 951.408 66.438L950.18 69.4303C946.334 67.8719 942.215 66.9851 937.966 66.8316L938.099 62.7327L938.192 62.7347C939.807 62.7347 941.117 61.4259 941.117 59.8107C941.117 58.1955 939.807 56.886 938.192 56.886C936.577 56.886 935.268 58.1955 935.268 59.8107C935.268 61.2839 936.357 62.5027 937.775 62.705L937.641 66.8215C937.306 66.8127 936.97 66.8073 936.633 66.8073C932.543 66.8073 928.556 67.485 924.801 68.7857L923.622 65.4403C924.685 65.0027 925.435 63.957 925.435 62.7347C925.435 61.1202 924.125 59.8107 922.511 59.8107C920.895 59.8107 919.585 61.1202 919.585 62.7347C919.585 64.3506 920.895 65.6601 922.511 65.6601C922.789 65.6601 923.059 65.6202 923.315 65.5465L924.494 68.8932C919.941 70.5179 915.736 73.0639 912.111 76.437L909.974 74.1562C910.452 73.6354 910.744 72.9414 910.744 72.1785C910.744 70.5632 909.435 69.2544 907.819 69.2544C906.204 69.2544 904.895 70.5632 904.895 72.1785C904.895 73.7937 906.204 75.1032 907.819 75.1032C908.555 75.1032 909.227 74.8313 909.741 74.3828L911.874 76.6595C911.631 76.8902 911.389 77.1242 911.151 77.3623C908.136 80.3776 905.721 83.834 903.966 87.5852L901.25 86.3312C901.348 86.039 901.403 85.7258 901.403 85.3998C901.403 83.7846 900.093 82.4751 898.478 82.4751C896.863 82.4751 895.553 83.7846 895.553 85.3998C895.553 87.015 896.863 88.3245 898.478 88.3245C899.652 88.3245 900.664 87.6319 901.129 86.6336L903.829 87.8801C901.891 92.1231 900.792 96.7354 900.62 101.511L897.134 101.398C897.091 99.8204 895.799 98.5542 894.212 98.5542C892.597 98.5542 891.287 99.8637 891.287 101.479C891.287 103.094 892.597 104.404 894.212 104.404C895.745 104.404 897.002 103.224 897.125 101.723L900.611 101.836C900.601 102.172 900.596 102.508 900.596 102.845C900.596 107.107 901.332 111.257 902.742 115.149L899.881 116.203C899.432 115.166 898.399 114.439 897.197 114.439C895.581 114.439 894.272 115.749 894.272 117.364C894.272 118.979 895.581 120.289 897.197 120.289C898.812 120.289 900.121 118.979 900.121 117.364C900.121 117.066 900.077 116.778 899.994 116.508L902.854 115.454C904.484 119.827 906.97 123.866 910.226 127.366L907.987 129.465C907.462 128.963 906.751 128.654 905.968 128.654C904.352 128.654 903.042 129.964 903.042 131.579C903.042 133.194 904.352 134.504 905.968 134.504C907.582 134.504 908.892 133.194 908.892 131.579C908.892 130.864 908.635 130.209 908.209 129.701L910.449 127.603C910.679 127.847 910.913 128.088 911.151 128.326C913.435 130.61 915.971 132.548 918.696 134.117L904.761 159.801H893.476V142.39H888.876V109.326H890.665V108.607H851.132V109.326H852.921V126H849.045L845.348 145.003V82.6794H843.726V60.1083H835.559V51.5155H831.189V44.2971H829.655V31.9225H829.259V44.2971H827.726V51.5155H823.357V60.1083H815.251V82.6794H813.567V123.658H801V159.801H759.308V89.9154H762.66V88.8156H759.308V86.8466H755.061V83.6128H720.326V86.8466H716.079V88.8156H712.727V89.9154H716.079V133.42H710.397V125.257H675.347V135.225H667.706V153.786H655.332V93.1188H651.207V88.9935H647.942V78.0806H647.254V88.9935H645.707V75.3304H645.02V88.9935H643.119V93.1188H642.098V153.786H616.491V118.21H617.693V115.804H609.788V109.274H606.007V115.804H602.569V109.274H599.133V115.804H592.446V109.274H571.978V115.804H567.199V118.21H569.916V131.615H562.354V161.864H551.974V153.786H540.418V171.402H526.446V178.919H505.836V200.461H1108.96V178.919H1090.55Z" fill="#E8EAED"></path> <path d="M1096.72 188.281L1092.46 159.801H1083.75V136.169H1084.83V134.031H1080.6V124.826H1080.09V134.031H1077.17V126.49H1076.65V134.031H1059.04V136.169H1060.24V184.119H1040.13V162.641H1028.68V109.861H1029.73V107.272H1027.44V103.957H1024.81V102.711V98.9215V95.6329H1021.63V89.7571H1021.25H1020.87V95.6329H1019.16L1018.12 98.9215H1011.19V103.957H993.053V107.272H990.767V109.861H991.815V144.202H976.637V177.942L959.797 170.481V137.731H962.513V135.325H957.734V128.794H937.266V135.325H930.58V128.794H927.142V135.325H923.705V128.794H919.924V135.325H912.019V137.731H913.221V183.124H905.545V182.648H904.155V169.712H905.545V168.675H904.155V155.739H905.545V154.702H904.155V141.767H905.545V140.728H904.155V127.793H905.545V126.756H904.155V113.82H905.545V112.783H904.155V99.3957H906.535V98.3547H907.747V95.5166H885.138V92.3605H885.874V91.4488H873.564V92.3605H874.299V95.5166H868.696V98.3547H869.908V99.3957H872.289V112.783H870.899V113.82H872.289V126.756H870.899V127.793H872.289V140.728H870.899V141.767H872.289V154.702H870.899V155.739H872.289V168.675H870.899V169.712H872.289V182.648H870.899V183.685H872.289V194.255H864.572V153.409H833.521V183.124H828.479V90.5573H824.75V92.9402L817.868 94.6237V93.0762H814.138V95.5362L807.255 97.219V95.4449H803.526V98.1315L796.643 99.815V98.3513H792.913V100.727L786.031 102.411V101.15H782.301V192.051H777.054V143.59H757.618V173.391H737.694V147.977H735.239V139.631H736.696V138.793H730.249V136.169H729.561V138.793H727.499V125.323H726.983V138.793H724.297V139.631H725.878V147.977H712.728V167.363H699.926L693.24 192.051H679.826V111.443H662.064V108.556H663.073V107.543H649.621V108.556H650.679V111.443V116.088V171.294H642.304V150.435H645.28V148.547H624.208V135.946H620.188V133.356H611.215V135.946H603.913V180.94H579.96V147.569H559.791V173.928H542.288V190.791H529.668V169.591H513.071V187.666H-10.668V200.461H513.071H518.15H526.446H529.668H542.288H559.791H565.673H568.822H579.96H603.913H611.215H620.188H624.208H639.928H642.304H650.679H664.723H671.642H679.826H712.728H720.326H733.153H737.694H757.959H763.404H782.301H784.165H786.031H792.913H796.643H803.526H806.643H807.255H814.138H817.868H823.784H824.75H826.615H828.479H833.521H859.186H862.852H864.572H872.289H885.874H898.31H904.155H913.221H935.738H959.548H959.797H976.637H986.053H991.815H995.453H1023.63H1028.68H1034.71H1040.13H1060.24H1075.19H1078.25H1083.75H1603V188.281H1096.72Z" fill="#DFE1E5"></path> <path d="M1921 450H-322V190.376H1921V450Z" fill="#E8EAED"></path> <path d="M766.722 190.376H831.393L1487.14 450H111.857L766.722 190.376Z" fill="#DFE1E5"></path> <path d="M649.545 222.964L664.711 216.561" stroke="#202123" stroke-width="1.33333" stroke-linecap="round" stroke-linejoin="round"></path> <path d="M993.47 241.846L1487.14 450H111.856L572.541 255.477" stroke="#202123" stroke-width="1.33333" stroke-linecap="round" stroke-linejoin="round"></path> <path d="M964.442 229.608L981.141 236.647" stroke="#202123" stroke-width="1.33333" stroke-linecap="round" stroke-linejoin="round"></path> <path d="M948.682 222.963L955.065 225.654" stroke="#202123" stroke-width="1.33333" stroke-linecap="round" stroke-linejoin="round"></path> <path d="M780.562 324.292H818.453L826.805 396.85H772.195L780.562 324.292Z" fill="white"></path> <path d="M796.252 197.54H802.82L805.058 208.265H793.935L796.252 197.54Z" fill="white"></path> <path d="M790.734 244.753H808.267L812.32 271.211H786.589L790.734 244.753Z" fill="white"></path> <path d="M780.562 324.292H818.453L826.805 396.85H772.195L780.562 324.292Z" fill="white"></path> <path d="M419.747 320.185L429.957 315.878" stroke="#202123" stroke-width="1.33333" stroke-miterlimit="10"></path> <path d="M486.957 232.623H508.782C505.742 228.947 506.899 221.341 510.824 218.295C512.025 217.364 513.672 216.949 515.308 217.172C518.99 217.679 522.338 220.138 524.569 222.449C526.583 224.536 527.854 227.204 527.471 229.84C527.394 230.378 527.24 230.923 526.861 231.37C526.483 231.812 525.838 232.136 525.179 232.081C524.525 232.028 523.978 231.61 523.71 231.12C523.441 230.631 523.406 230.078 523.427 229.542C523.537 226.805 525.259 222.934 528.812 222.051C530.646 221.597 532.499 222.27 533.703 223.418C536.668 226.239 534.817 234.19 534.817 234.19H559.053" stroke="#E8EAED" stroke-width="1.33333" stroke-miterlimit="10"></path> <path d="M1147.99 272.386H1125.47C1134.67 262.216 1134.66 251.051 1133.35 244.085C1132.57 239.992 1126.44 238.194 1122.76 241.047C1111.39 249.859 1117.71 267.759 1117.71 267.759C1114.45 262 1109.94 260.072 1106.79 259.458C1104.59 259.027 1102.54 260.438 1102.71 262.281C1103.25 268.441 1111.45 273.236 1111.45 273.236H1097.28" stroke="#E8EAED" stroke-width="1.33333" stroke-miterlimit="10"></path> <path d="M1116.46 209.488H1146.19C1146.19 209.488 1141.12 202.304 1146.19 201.089C1148.88 200.44 1150.57 201.993 1151.56 203.591C1151.92 204.188 1153.01 204.051 1153.13 203.393C1153.85 199.477 1155.89 193.269 1161.55 194.028C1169.75 195.123 1166.92 205.472 1166.92 205.472H1174.53" stroke="#E8EAED" stroke-width="1.33333" stroke-miterlimit="10"></path> </svg> 