<?xml version="1.0" encoding="UTF-8"?> <svg xmlns="http://www.w3.org/2000/svg" width="389" height="648" viewBox="0 0 389 648" fill="none"> <g clip-path="url(#clip0_1194_18230)"> <path d="M104.482 19H-455.001C-528.454 19 -588 78.4804 -588 151.853V280.899C-588 354.272 -528.454 413.753 -455.001 413.753H104.482C177.936 413.753 237.482 354.272 237.482 280.899V151.853C237.482 78.4804 177.936 19 104.482 19Z" fill="#E8EAED" stroke="#202123" stroke-width="1.5" stroke-linecap="round" stroke-linejoin="round"></path> <path d="M229.49 580.741C229.449 586.465 227.432 592 223.78 596.408C220.129 600.816 215.068 603.826 209.453 604.93V629.743C221.607 628.592 232.898 622.958 241.129 613.938C249.36 604.917 253.941 593.155 253.98 580.941V275.002C253.781 207.151 229.224 229.655 229.49 275.147V580.741Z" fill="white" stroke="#202123" stroke-width="1.5" stroke-linecap="round" stroke-linejoin="round"></path> <path d="M254.49 420.74C254.532 426.465 256.549 432 260.2 436.407C263.851 440.815 268.913 443.826 274.528 444.93V469.742C262.374 468.592 251.082 462.958 242.852 453.937C234.621 444.917 230.04 433.155 230 420.941V115.002C230.038 102.018 235.211 89.5759 244.388 80.3945C253.566 71.2131 266.002 66.0382 278.981 66V90.6457C272.497 90.6837 266.29 93.2773 261.705 97.8639C257.121 102.45 254.528 108.66 254.49 115.147V420.74Z" fill="white" stroke="#202123" stroke-width="1.5" stroke-linecap="round" stroke-linejoin="round"></path> <path d="M145.563 159.792C141.74 109.662 131.194 55.8075 105.405 26.1289" stroke="#202123" stroke-width="1.5" stroke-linecap="round" stroke-linejoin="round"></path> <path d="M60.7837 49.2979C67.7165 49.2969 74.4887 51.3935 80.2169 55.3142C85.9452 59.2349 90.3636 64.7977 92.8959 71.277C103.782 99.0707 117.346 153.879 104.897 238.209" stroke="white" stroke-width="10" stroke-linecap="round" stroke-linejoin="round"></path> <path d="M-549.627 276.524V901.178H233.02V276.524H-549.627ZM170.739 416.351C171.45 415.89 172.151 415.47 172.893 415.069C182.804 409.764 198.637 417.392 207.175 426.081L211.364 476.844V477.034C211.486 478.506 211.509 479.984 211.434 481.459C211.434 481.739 211.434 482.019 211.374 482.31C211.314 482.6 211.314 482.94 211.284 483.251C211.254 483.561 211.224 483.751 211.194 483.992C211.164 484.232 211.113 484.552 211.073 484.832C211.033 485.113 210.993 485.363 210.933 485.623C210.823 486.194 210.703 486.764 210.562 487.335C210.562 487.525 210.472 487.705 210.422 487.896C210.372 488.086 210.312 488.296 210.262 488.496C210.212 488.696 210.111 488.997 210.031 489.257C209.744 490.191 209.41 491.106 209.029 492C208.939 492.23 208.839 492.45 208.739 492.671V492.751L197.765 500.158L163.092 449.786C155.757 439.004 159.184 423.999 170.739 416.351Z" fill="white" stroke="#202123" stroke-width="1.75" stroke-linecap="round" stroke-linejoin="round"></path> <path d="M179.3 511.773H-492.316C-496.56 511.774 -500.763 510.941 -504.684 509.319C-508.606 507.698 -512.169 505.321 -515.171 502.324C-518.173 499.327 -520.554 495.769 -522.178 491.853C-523.803 487.937 -524.639 483.739 -524.639 479.5V259.595H193.558L211.493 476.848C211.86 481.294 211.3 485.767 209.849 489.986C208.398 494.205 206.087 498.077 203.062 501.359C200.037 504.641 196.364 507.26 192.274 509.053C188.184 510.845 183.767 511.771 179.3 511.773Z" fill="#80858B" stroke="#202123" stroke-width="1.5" stroke-linecap="round" stroke-linejoin="round"></path> <path d="M336.105 344.248H246.841C244.361 344.256 241.985 345.248 240.232 347.007C238.478 348.766 237.49 351.15 237.482 353.638V486.343C237.49 488.831 238.478 491.215 240.232 492.974C241.985 494.733 244.361 495.725 246.841 495.733H336.105C338.584 495.725 340.96 494.733 342.714 492.974C344.467 491.215 345.456 488.831 345.464 486.343V353.638C345.456 351.15 344.467 348.766 342.714 347.007C340.96 345.248 338.584 344.256 336.105 344.248ZM336.785 490.717H247.161C245.92 490.717 244.73 490.223 243.852 489.342C242.975 488.462 242.482 487.267 242.482 486.022V352.956C242.482 351.711 242.975 350.517 243.852 349.636C244.73 348.756 245.92 348.261 247.161 348.261H336.795C338.032 348.266 339.217 348.763 340.091 349.643C340.964 350.523 341.454 351.714 341.454 352.956V486.022C341.454 487.264 340.964 488.455 340.091 489.335C339.217 490.215 338.032 490.712 336.795 490.717H336.785Z" fill="#F2F4F6" stroke="#202123" stroke-width="1.5" stroke-linecap="round" stroke-linejoin="round"></path> <path d="M362.579 359.396H333.704C324.427 359.396 316.907 366.971 316.907 376.317V466.336C316.907 475.681 324.427 483.257 333.704 483.257H362.579C371.856 483.257 379.376 475.681 379.376 466.336V376.317C379.376 366.971 371.856 359.396 362.579 359.396Z" fill="white" stroke="#202123" stroke-width="1.5" stroke-linecap="round" stroke-linejoin="round"></path> <path d="M372.208 377.744V464.869C372.2 467.853 371.005 470.712 368.884 472.822C366.764 474.932 363.89 476.121 360.891 476.128H334.511C332.407 476.127 330.345 475.546 328.553 474.451C326.76 473.355 325.308 471.787 324.356 469.921C323.565 468.378 323.153 466.671 323.154 464.939V377.784C323.162 374.8 324.357 371.941 326.477 369.831C328.598 367.721 331.472 366.533 334.471 366.525H360.871C363.121 366.51 365.324 367.162 367.2 368.398C368.538 369.264 369.677 370.403 370.54 371.739C371.403 373.076 371.972 374.579 372.208 376.15C372.246 376.681 372.246 377.213 372.208 377.744Z" fill="#E8EAED" stroke="#202123" stroke-width="1.5" stroke-linecap="round" stroke-linejoin="round"></path> <path d="M274.963 402.169H233.02V523.357H274.963V402.169Z" fill="white" stroke="#202123" stroke-width="1.5" stroke-linecap="round" stroke-linejoin="round"></path> <path d="M344.125 521.575C351.765 521.575 357.958 515.591 357.958 508.209C357.958 500.827 351.765 494.843 344.125 494.843C336.486 494.843 330.293 500.827 330.293 508.209C330.293 515.591 336.486 521.575 344.125 521.575Z" fill="white" stroke="#202123" stroke-width="1.5" stroke-linecap="round" stroke-linejoin="round"></path> <path d="M344.126 519.793C341.919 519.793 339.763 519.14 337.928 517.916C336.094 516.692 334.664 514.952 333.82 512.917C332.975 510.881 332.754 508.642 333.185 506.481C333.615 504.321 334.678 502.336 336.238 500.778C337.798 499.22 339.785 498.159 341.949 497.73C344.113 497.3 346.356 497.52 348.395 498.364C350.433 499.207 352.175 500.634 353.401 502.466C354.627 504.298 355.281 506.451 355.281 508.654C355.276 511.607 354.099 514.437 352.008 516.525C349.917 518.612 347.083 519.788 344.126 519.793Z" fill="#202123" stroke="#202123" stroke-width="1.5" stroke-linecap="round" stroke-linejoin="round"></path> <path opacity="0.35" d="M368.667 368.05L324.046 419.099V413.501L365.111 366.524C366.377 366.832 367.579 367.348 368.667 368.05Z" fill="white"></path> <path opacity="0.35" d="M372.237 403.06V414.146L324.356 469.891C323.563 468.32 323.151 466.584 323.154 464.824V460.817L372.237 403.06Z" fill="white"></path> <path opacity="0.35" d="M372.236 377.037V391.335L323.154 449.396V433.355L372.126 375.436C372.2 375.966 372.237 376.501 372.236 377.037Z" fill="white"></path> <path d="M244.621 418.208H269.609" stroke="#202123" stroke-width="1.5" stroke-linecap="square" stroke-linejoin="round"></path> <path d="M244.621 431.574H269.609" stroke="#202123" stroke-width="1.5" stroke-linecap="square" stroke-linejoin="round"></path> <path d="M244.621 443.159H269.609" stroke="#202123" stroke-width="1.5" stroke-linecap="square" stroke-linejoin="round"></path> <path d="M244.621 456.525H269.609" stroke="#202123" stroke-width="1.5" stroke-linecap="square" stroke-linejoin="round"></path> <path d="M244.621 469.891H269.609" stroke="#202123" stroke-width="1.5" stroke-linecap="square" stroke-linejoin="round"></path> <path d="M244.621 481.476H269.609" stroke="#202123" stroke-width="1.5" stroke-linecap="square" stroke-linejoin="round"></path> <path d="M244.621 494.843H269.609" stroke="#202123" stroke-width="1.5" stroke-linecap="square" stroke-linejoin="round"></path> <path d="M244.621 507.316H269.609" stroke="#202123" stroke-width="1.5" stroke-linecap="square" stroke-linejoin="round"></path> <path d="M201.785 502.777C195.775 508.569 187.734 511.796 179.372 511.773H18.8406L23.9472 414.545C25.2715 404.429 34.2707 396.822 44.9454 396.822H176.162C186.837 396.822 195.836 404.419 197.15 414.545L201.785 502.777Z" fill="#E8EAED" stroke="#202123" stroke-width="1.5" stroke-linecap="round" stroke-linejoin="round"></path> <path d="M80.4172 360.287H72.3855V396.822H80.4172V360.287Z" fill="#F2F4F6" stroke="#202123" stroke-width="1.5" stroke-linecap="round" stroke-linejoin="round"></path> <path d="M150.026 360.287H141.994V396.822H150.026V360.287Z" fill="#F2F4F6" stroke="#202123" stroke-width="1.5" stroke-linecap="round" stroke-linejoin="round"></path> <path d="M152.196 370.09H67.5281C65.8104 370.083 64.1137 369.712 62.5499 369C60.9861 368.287 59.5909 367.251 58.4563 365.959C57.3217 364.667 56.4736 363.148 55.9679 361.503C55.4622 359.858 55.3105 358.124 55.5228 356.416L60.475 316.598C60.8398 313.661 62.26 310.959 64.4696 308.996C66.6793 307.032 69.5271 305.943 72.4803 305.932H147.254C150.207 305.943 153.054 307.032 155.264 308.996C157.474 310.959 158.894 313.661 159.259 316.598L164.211 356.416C164.423 358.125 164.271 359.86 163.765 361.505C163.259 363.151 162.41 364.67 161.274 365.963C160.138 367.255 158.742 368.291 157.177 369.003C155.612 369.714 153.914 370.085 152.196 370.09Z" fill="#E8EAED" stroke="#202123" stroke-width="1.5" stroke-linecap="round" stroke-linejoin="round"></path> <path d="M166.089 511.772H54.5374L54.92 501.97H165.696L166.089 511.772Z" fill="#E8EAED"></path> <path d="M169.659 616.921H50.9678L51.4699 603.555H169.157L169.659 616.921Z" fill="#E8EAED"></path> <path d="M163.412 492.169L162.017 455.7C161.777 449.458 159.126 443.551 154.619 439.219C150.112 434.887 144.099 432.466 137.844 432.466H82.7824C76.5269 432.466 70.5148 434.887 66.0078 439.219C61.5007 443.551 58.8492 449.458 58.6096 455.7L57.2146 492.169H163.412Z" fill="#E8EAED"></path> <path d="M201.762 502.685C195.742 508.523 187.679 511.784 179.289 511.773H-492.306C-500.873 511.778 -509.09 508.385 -515.153 502.34C-521.216 496.295 -524.628 488.092 -524.639 479.535V259.595H193.546L196.021 289.621L197.073 302.282L199.338 329.695L211.491 476.663V476.863C211.888 481.618 211.22 486.402 209.538 490.868C207.855 495.335 205.199 499.371 201.762 502.685Z" stroke="#202123" stroke-width="1.5" stroke-linecap="round" stroke-linejoin="round"></path> <path d="M208.821 492.739L197.768 500.188L162.843 449.534C155.445 438.693 158.907 423.603 170.545 415.912C171.262 415.449 171.968 415.027 172.715 414.624C182.698 409.289 198.647 416.959 207.247 425.697L211.486 476.935C211.947 482.343 211.03 487.779 208.821 492.739Z" fill="#F2F4F6" stroke="#202123" stroke-width="1.75" stroke-linecap="round" stroke-linejoin="round"></path> <path d="M55.2516 451.94L7.5092 511.772H-42.7354C-42.318 507.721 -40.7408 503.877 -38.1933 500.703L21.9394 425.334C25.4668 420.913 30.6034 418.077 36.2193 417.448C41.8352 416.82 47.4704 418.451 51.8852 421.983C56.3 425.516 59.1328 430.659 59.7603 436.283C60.3879 441.906 58.7588 447.549 55.2315 451.97L55.2516 451.94Z" fill="white" stroke="#202123" stroke-width="1.75" stroke-linecap="round" stroke-linejoin="round"></path> <path d="M144.671 398.293V511.773H83.9871V399.837C104.141 397.683 124.435 397.167 144.671 398.293Z" fill="#F2F4F6" stroke="#202123" stroke-width="1.75" stroke-miterlimit="10"></path> <path d="M70.2974 437.934L35.602 488.604L-6.14697 460.329L22.7492 418.238C29.6321 408.078 49.0267 396.87 60.4848 403.043C61.2273 403.446 61.9396 403.869 62.642 404.332C74.2205 411.995 77.6519 427.099 70.2974 437.934Z" fill="#F2F4F6" stroke="#202123" stroke-width="1.75" stroke-miterlimit="10"></path> <path d="M42.6157 481.526L-3.78982 450.26C-4.88237 449.524 -6.3657 449.811 -7.10291 450.902L-13.7996 460.812C-14.5368 461.903 -14.2487 463.384 -13.1562 464.12L33.2494 495.386C34.342 496.122 35.8253 495.835 36.5625 494.744L43.2591 484.834C43.9964 483.743 43.7083 482.262 42.6157 481.526Z" fill="#F2F4F6" stroke="#202123" stroke-width="1.75" stroke-miterlimit="10"></path> <path d="M249.083 477.911L233.02 476.425V462.763L249.083 477.911Z" fill="#F2F4F6" stroke="#202123" stroke-width="1.75" stroke-miterlimit="10"></path> <path d="M150.026 390.543V398.232C150.026 405.657 147.064 412.778 141.792 418.028C136.52 423.279 129.37 426.228 121.914 426.228H110.871C106.344 426.228 102.003 424.437 98.8024 421.25C95.6016 418.062 93.8035 413.738 93.8035 409.23V369.085C93.8035 362.498 96.4309 356.18 101.108 351.523C105.785 346.865 112.128 344.248 118.742 344.248H124.545C124.545 344.248 145.156 367.345 143.008 366.825V389.243H147.084C148.039 389.732 149.021 390.166 150.026 390.543Z" fill="white" stroke="#202123" stroke-width="1.75" stroke-linecap="round" stroke-linejoin="round"></path> <path d="M142.886 368.693V397.7C142.87 403.367 140.609 408.798 136.597 412.807C132.584 416.816 127.146 419.078 121.468 419.099H110.66C107.849 419.094 105.155 417.978 103.167 415.995C101.179 414.012 100.058 411.324 100.05 408.519V368.912C100.061 364.031 102.006 359.354 105.461 355.901C108.917 352.448 113.601 350.501 118.49 350.485H124.467C129.314 350.508 133.959 352.428 137.403 355.833C140.847 359.237 142.816 363.855 142.886 368.693Z" fill="white" stroke="#202123" stroke-width="1.75" stroke-linecap="round" stroke-linejoin="round"></path> <path d="M83.987 399.775V511.773H55.5664L54.8566 506.267L54.1468 500.811L41.1511 399.424C47.2591 397.097 79.1786 400.547 83.987 399.775Z" fill="#27B4B8" stroke="#202123" stroke-width="1.5" stroke-linecap="round" stroke-linejoin="round"></path> <path d="M193.754 410.777L186.87 510.898C184.445 511.482 181.962 511.776 179.471 511.773H148.24V400.387C153.015 400.776 157.766 401.382 162.494 402.207C173.161 404.033 183.63 406.903 193.754 410.777Z" fill="#27B4B8" stroke="#202123" stroke-width="1.5" stroke-linecap="round" stroke-linejoin="round"></path> <path d="M157.124 511.774H142.887V393.337C142.873 392.387 143.242 391.471 143.913 390.789C144.583 390.106 145.502 389.713 146.466 389.694H153.585C154.362 389.695 155.115 389.956 155.721 390.435C156.172 390.777 156.537 391.216 156.788 391.72C157.038 392.223 157.167 392.776 157.165 393.337V418.713" fill="#27B4B8"></path> <path d="M157.124 511.774H142.887V393.337C142.873 392.387 143.242 391.471 143.913 390.789C144.583 390.106 145.502 389.713 146.466 389.694H153.585C154.362 389.695 155.115 389.956 155.721 390.435C156.172 390.777 156.537 391.216 156.788 391.72C157.038 392.223 157.167 392.776 157.165 393.337V418.713" stroke="#202123" stroke-width="1.5" stroke-linecap="round" stroke-linejoin="round"></path> <path d="M78.6327 417.363V400.469C78.6136 398.582 79.3543 396.764 80.693 395.413C82.0317 394.062 83.8595 393.287 85.7769 393.258H89.2163C90.1954 393.26 91.1336 393.644 91.8259 394.326C92.5181 395.007 92.9082 395.93 92.9109 396.894V511.773H78.6327" fill="#27B4B8"></path> <path d="M78.6327 417.363V400.469C78.6136 398.582 79.3543 396.764 80.693 395.413C82.0317 394.062 83.8595 393.287 85.7769 393.258H89.2163C90.1954 393.26 91.1336 393.644 91.8259 394.326C92.5181 395.007 92.9082 395.93 92.9109 396.894V511.773H78.6327" stroke="#202123" stroke-width="1.5" stroke-linecap="round" stroke-linejoin="round"></path> <path d="M88.4489 314.355C82.8774 319.779 79.7457 327.117 79.7365 334.768V344.338C78.3907 345.672 77.1881 347.134 76.1472 348.704C74.2479 344.154 73.2736 339.291 73.2778 334.384C73.2894 324.862 76.935 315.68 83.5136 308.604C84.8964 310.719 86.5552 312.652 88.4489 314.355Z" fill="#E8EAED" stroke="#202123" stroke-width="1.75" stroke-linecap="round" stroke-linejoin="round"></path> <path d="M142.886 333.868V361.394C135.135 368.731 124.825 372.804 114.117 372.761C105.961 372.833 97.9699 370.482 91.1699 366.01C84.3699 361.538 79.0715 355.15 75.9553 347.666C76.9541 346.113 78.1087 344.665 79.4016 343.343V333.868C79.4229 326.229 82.4884 318.908 87.9283 313.507C93.3682 308.105 100.74 305.061 108.433 305.04H113.855C121.548 305.061 128.92 308.105 134.36 313.507C139.8 318.908 142.865 326.229 142.886 333.868Z" fill="#F2F4F6" stroke="#202123" stroke-width="1.75" stroke-linecap="round" stroke-linejoin="round"></path> <path d="M77.5322 356.706C81.859 356.014 84.6833 350.693 83.837 344.81C82.9907 338.928 78.8065 334.719 74.4797 335.41C70.1529 336.102 73.2054 357.397 77.5322 356.706Z" fill="white" stroke="#202123" stroke-width="1.75" stroke-linecap="round" stroke-linejoin="round"></path> <path d="M152.703 348.321C150.488 353.521 147.142 358.208 142.886 362.07V347.374C143.86 346.723 144.976 346.293 146.149 346.119C147.322 345.944 148.521 346.029 149.655 346.366C150.83 346.755 151.88 347.428 152.703 348.321Z" fill="#F2F4F6" stroke="#202123" stroke-width="1.75" stroke-linecap="round" stroke-linejoin="round"></path> <path d="M72.5395 359.811C73.5423 362.624 81.3434 367.931 83.3689 367.41C83.3689 367.41 104.797 394.554 117.11 396.446H127.388C129.163 396.446 130.878 396.386 132.552 396.226C145.136 395.154 155.144 389.017 155.144 375.63C155.144 375.63 147.834 345.824 146.55 344.512V335.18C146.529 327.537 143.479 320.212 138.066 314.807C132.653 309.402 125.317 306.356 117.662 306.335H112.097C96.294 306.335 83.3789 313.233 83.3789 329.033V347.956C82.4566 347.312 81.3988 346.886 80.2865 346.713C79.1742 346.539 78.0368 346.622 76.9615 346.955C75.8517 347.341 74.8605 348.007 74.0837 348.887C71.8376 351.43 71.1257 355.666 72.5395 359.811Z" fill="white" stroke="#202123" stroke-width="1.5" stroke-linecap="round" stroke-linejoin="round"></path> <path d="M133.165 338V348.413C133.165 348.413 136.738 350.373 135.658 356.988" fill="white"></path> <path d="M133.165 338V348.413C133.165 348.413 136.738 350.373 135.658 356.988" stroke="#202123" stroke-width="1.5" stroke-linecap="round" stroke-linejoin="round"></path> <path d="M124.949 351.754C124.463 352.525 124.155 353.395 124.045 354.3C123.935 355.205 124.027 356.123 124.315 356.988" fill="white"></path> <path d="M124.949 351.754C124.463 352.525 124.155 353.395 124.045 354.3C123.935 355.205 124.027 356.123 124.315 356.988" stroke="#202123" stroke-width="1.5" stroke-linecap="round" stroke-linejoin="round"></path> <path d="M113.771 372.536L126.255 386.713C126.459 386.945 126.71 387.132 126.992 387.26C127.274 387.387 127.579 387.454 127.889 387.454H141.696C142.185 387.454 142.659 387.29 143.043 386.989C143.426 386.687 143.697 386.266 143.812 385.792L147.151 371.895C147.199 371.705 147.223 371.51 147.221 371.314C147.051 362.944 139.902 356.426 132.862 356.426H126.154C119.276 356.426 113.6 362.924 113.219 371.034C113.203 371.586 113.4 372.124 113.771 372.536Z" fill="#F2F4F6" stroke="#202123" stroke-width="1.75" stroke-linecap="round" stroke-linejoin="round"></path> <path d="M140.764 372.897L141.095 372.306C141.438 371.699 141.558 370.991 141.436 370.304C140.563 365.768 136.422 362.444 132.842 362.444H126.184C123.437 362.444 120.95 364.607 119.687 367.741C119.423 368.43 119.415 369.191 119.666 369.886C119.916 370.58 120.407 371.162 121.05 371.526L127.819 375.12C128.313 375.381 128.87 375.5 129.428 375.463C129.986 375.426 130.522 375.234 130.977 374.91L132.652 373.698C133.184 373.316 133.827 373.118 134.482 373.135C135.137 373.151 135.769 373.38 136.282 373.788C136.623 374.056 137.018 374.247 137.441 374.348C137.863 374.449 138.302 374.457 138.728 374.373C139.154 374.288 139.556 374.112 139.908 373.858C140.259 373.603 140.551 373.275 140.764 372.897Z" fill="white" stroke="#202123" stroke-width="1.75" stroke-linecap="round" stroke-linejoin="round"></path> <path d="M71.225 334.189C71.22 339.081 72.1703 343.928 74.0226 348.457C74.805 347.571 75.8031 346.902 76.9205 346.514C78.0021 346.179 79.1462 346.094 80.2654 346.268C81.3846 346.441 82.4492 346.868 83.378 347.515V326.82C83.378 326.82 119.065 332.727 138.528 314.345C140.333 312.648 141.917 310.731 143.24 308.638C146.135 304.073 147.668 298.781 147.662 293.379L143.15 294.911C136.364 297.21 129.17 298.066 122.033 297.424C76.2487 293.399 71.225 311.161 71.225 334.189Z" fill="#F2F4F6" stroke="#202123" stroke-width="1.5" stroke-miterlimit="10"></path> <path d="M139.424 339.793H137.425C136.991 339.793 136.64 340.183 136.64 340.664V347.833C136.64 348.314 136.991 348.704 137.425 348.704H139.424C139.858 348.704 140.209 348.314 140.209 347.833V340.664C140.209 340.183 139.858 339.793 139.424 339.793Z" fill="#202123" stroke="#202123" stroke-width="0.75" stroke-miterlimit="10"></path> <path d="M114.222 339.793H116.221C116.655 339.793 117.006 340.183 117.006 340.664V347.833C117.006 348.314 116.655 348.704 116.221 348.704H114.222C113.788 348.704 113.437 348.314 113.437 347.833V340.664C113.437 340.183 113.788 339.793 114.222 339.793Z" fill="#202123" stroke="#202123" stroke-width="0.75" stroke-miterlimit="10"></path> <path d="M78.6327 353.158C78.6327 353.158 82.9645 353.741 83.0947 358.505L78.6327 353.158Z" fill="white"></path> <path d="M78.6327 353.158C78.6327 353.158 82.9645 353.741 83.0947 358.505" stroke="#202123" stroke-width="1.75" stroke-linecap="round" stroke-linejoin="round"></path> <path d="M133.962 367.087C133.962 367.087 126.416 365.213 124.146 368.307L133.962 367.087Z" fill="white"></path> <path d="M133.962 367.087C133.962 367.087 126.416 365.213 124.146 368.307" stroke="#202123" stroke-width="1.75" stroke-linecap="round" stroke-linejoin="round"></path> <path d="M137.874 336.165L144.705 341.6C144.804 341.679 144.821 341.824 144.741 341.923L142.848 344.296C142.768 344.395 142.623 344.412 142.524 344.332L135.693 338.898C135.594 338.818 135.577 338.674 135.657 338.574L137.55 336.202C137.63 336.102 137.775 336.086 137.874 336.165Z" fill="#202123"></path> <path d="M107.771 342.038L116.424 337.071C116.545 337.002 116.699 337.044 116.768 337.164L118.267 339.769C118.336 339.889 118.295 340.042 118.174 340.111L109.52 345.078C109.4 345.147 109.246 345.105 109.177 344.985L107.678 342.38C107.609 342.26 107.65 342.107 107.771 342.038Z" fill="#202123"></path> <path d="M58.2951 501.126L35.7587 511.772H-64.1538L45.4657 470.081C49.4859 468.546 53.937 468.649 57.8834 470.37C61.8298 472.09 64.9643 475.294 66.628 479.307C68.2917 483.32 68.3551 487.83 66.8049 491.89C65.2547 495.949 62.2115 499.242 58.3151 501.076L58.2951 501.126Z" fill="white" stroke="#202123" stroke-width="1.75" stroke-linecap="round" stroke-linejoin="round"></path> <path d="M238.164 515.186C237.626 515.256 237.038 515.306 236.5 515.337L233.02 515.145V472.718C238.687 472.04 244.393 473.627 248.883 477.129C253.373 480.631 256.278 485.761 256.961 491.391C257.643 497.022 256.046 502.69 252.521 507.151C248.996 511.611 243.831 514.498 238.164 515.175V515.186Z" fill="white" stroke="#202123" stroke-width="1.75" stroke-linecap="round" stroke-linejoin="round"></path> <path d="M179.077 511.773H150.932C150.437 502.954 163.37 484.219 171.925 483.041L211.49 476.13V476.323C211.863 480.834 211.303 485.374 209.844 489.656C208.385 493.938 206.059 497.869 203.013 501.201C199.967 504.533 196.267 507.193 192.147 509.012C188.027 510.832 183.577 511.772 179.077 511.773Z" fill="white" stroke="#202123" stroke-width="1.75" stroke-linecap="round" stroke-linejoin="round"></path> <path d="M125.586 488.484C126.153 488.95 126.553 489.586 126.727 490.297C126.9 491.007 126.837 491.754 126.548 492.426C126.295 492.917 126.105 493.437 125.981 493.975L108.625 511.772H98.2654L120.483 488.997L120.634 488.836C121.272 488.184 122.129 487.787 123.043 487.722C123.956 487.657 124.861 487.929 125.586 488.484Z" fill="white" stroke="#202123" stroke-width="1.75" stroke-linecap="round" stroke-linejoin="round"></path> <path d="M92.485 464.545C78.8968 464.547 65.7119 469.221 55.0891 477.801C44.4664 486.381 37.0351 498.358 34.012 511.773H49.1406C52.0012 502.4 57.7509 494.202 65.5474 488.379C73.3438 482.555 82.7771 479.414 92.465 479.414C102.153 479.414 111.586 482.555 119.383 488.379C127.179 494.202 132.929 502.4 135.789 511.773H150.918C147.898 498.364 140.473 486.391 129.858 477.811C119.243 469.232 106.067 464.555 92.485 464.545Z" fill="white" stroke="#202123" stroke-width="1.75" stroke-linecap="round" stroke-linejoin="round"></path> <path d="M181.092 538.505H-456.647C-494.198 538.505 -524.639 568.917 -524.639 606.433V851.072C-524.639 888.588 -494.198 919 -456.647 919H181.092C218.643 919 249.084 888.588 249.084 851.072V606.433C249.084 568.917 218.643 538.505 181.092 538.505Z" fill="#F2F4F6" stroke="#202123" stroke-width="1.5" stroke-linecap="round" stroke-linejoin="round"></path> <path d="M237.482 851.766L237.482 607.522C237.482 576.295 212.109 550.98 180.81 550.98H-457.258C-488.557 550.98 -513.93 576.295 -513.93 607.522V851.766C-513.93 882.993 -488.557 908.307 -457.258 908.307H180.81C212.109 908.307 237.482 882.993 237.482 851.766Z" fill="white" stroke="#202123" stroke-width="1.5" stroke-linecap="round" stroke-linejoin="round"></path> <path d="M208.925 847.079L208.925 603.298C208.925 587.692 196.262 575.04 180.642 575.04H-457.09C-472.71 575.04 -485.373 587.692 -485.373 603.298V847.079C-485.373 862.686 -472.71 875.337 -457.09 875.337H180.642C196.262 875.337 208.925 862.686 208.925 847.079Z" fill="#E8EAED" stroke="#202123" stroke-width="1.5" stroke-linecap="round" stroke-linejoin="round"></path> <path d="M-238.174 599.1H175.013" stroke="white" stroke-width="10" stroke-linecap="square" stroke-linejoin="round"></path> <path d="M-238.174 616.922H175.013" stroke="white" stroke-width="10" stroke-linecap="square" stroke-linejoin="round"></path> <path d="M-238.174 634.742H175.013" stroke="white" stroke-width="10" stroke-linecap="square" stroke-linejoin="round"></path> <path d="M42.0145 472.339C50.0866 468.536 55.9699 469.114 65.8743 474.42L77.2842 482.016C82.7812 488.606 77.096 503.121 71.6981 507.67L66.835 511.772H25.0879" fill="white"></path> <path d="M42.0145 472.339C50.0866 468.536 55.9699 469.114 65.8743 474.42L77.2842 482.016C82.7812 488.606 77.096 503.121 71.6981 507.67L66.835 511.772H25.0879" stroke="#202123" stroke-width="1.75" stroke-linecap="square" stroke-linejoin="round"></path> <path d="M61.6763 495.945L71.2416 507.709C72.3029 509.006 73.8185 509.817 75.4576 509.966C77.0967 510.114 78.7262 509.587 79.9902 508.501C81.2476 507.406 82.0341 505.843 82.1779 504.152C82.3217 502.462 81.8112 500.781 80.7578 499.477L71.1924 487.713" fill="white"></path> <path d="M61.6763 495.945L71.2416 507.709C72.3029 509.006 73.8185 509.817 75.4576 509.966C77.0967 510.114 78.7262 509.587 79.9902 508.501V508.501C81.2476 507.406 82.0341 505.843 82.1779 504.152C82.3217 502.462 81.8112 500.781 80.7578 499.477L71.1924 487.713" stroke="#202123" stroke-width="1.75" stroke-linecap="round" stroke-linejoin="round"></path> <path d="M61.6803 493.951L72.7965 507.843C73.6806 508.943 74.1669 510.335 74.1702 511.773H59.2642L54.7826 506.169L51.8599 502.556" fill="white"></path> <path d="M61.6803 493.951L72.7965 507.843C73.6806 508.943 74.1669 510.335 74.1702 511.773H59.2642L54.7826 506.169L51.8599 502.556" stroke="#202123" stroke-width="1.75" stroke-linecap="round" stroke-linejoin="round"></path> <path opacity="0.35" d="M80.4175 279.859L72.265 289.51L-115.403 511.772H-128.407L59.2409 289.51L70.9546 275.634C74.3262 276.493 77.5266 277.921 80.4175 279.859Z" fill="white"></path> <path opacity="0.35" d="M200 329.764L44.3331 511.772H19.7329L197.727 302.366L200 329.764Z" fill="white"></path> <path d="M236.284 289H-550.519L-532.472 195.377C-530.444 184.862 -524.807 175.379 -516.53 168.56C-508.252 161.74 -497.851 158.01 -487.115 158.01H179.377C190.081 158.011 200.452 161.72 208.718 168.503C216.984 175.286 222.631 184.722 224.694 195.197L241.838 282.26C241.999 283.079 241.977 283.922 241.773 284.731C241.568 285.54 241.187 286.293 240.656 286.938C240.125 287.582 239.458 288.101 238.702 288.458C237.946 288.814 237.12 288.999 236.284 289Z" fill="white" stroke="#202123" stroke-width="1.5" stroke-linecap="round" stroke-linejoin="round"></path> <path d="M-535.348 277.417L-519.948 197.748C-518.416 189.826 -514.159 182.682 -507.909 177.544C-501.658 172.406 -493.804 169.596 -485.697 169.595H178.686C186.743 169.611 194.545 172.406 200.764 177.502C206.983 182.599 211.235 189.683 212.797 197.549L228.558 277.417H-535.348Z" fill="white" stroke="#202123" stroke-width="1.5" stroke-linecap="round" stroke-linejoin="round"></path> <path d="M5.65366 214.887H-31.3334C-40.095 214.887 -47.1978 222.036 -47.1978 230.856V230.996C-47.1978 239.816 -40.095 246.966 -31.3334 246.966H5.65366C14.4153 246.966 21.5181 239.816 21.5181 230.996V230.856C21.5181 222.036 14.4153 214.887 5.65366 214.887Z" fill="#E8EAED"></path> <path d="M149.126 214.887H111.659C102.783 214.887 95.5881 222.036 95.5881 230.856V230.996C95.5881 239.816 102.783 246.966 111.659 246.966H149.126C158.001 246.966 165.196 239.816 165.196 230.996V230.856C165.196 222.036 158.001 214.887 149.126 214.887Z" fill="#E8EAED"></path> <path d="M-88.2485 471.673H117.006" stroke="#202123" stroke-width="5" stroke-linecap="round" stroke-linejoin="round"></path> <path d="M117.006 531.376L33.1196 472.564" stroke="#202123" stroke-width="5" stroke-linecap="round" stroke-linejoin="round"></path> </g> <defs> <clipPath id="clip0_1194_18230"> <rect width="429" height="648" fill="white" transform="matrix(-1 0 0 1 389 0)"></rect> </clipPath> </defs> </svg> 